<svg version="1.2" xmlns="http://www.w3.org/2000/svg" viewBox="0 0 38 38" width="38" height="38"><defs><linearGradient id="P" gradientUnits="userSpaceOnUse"/><radialGradient id="g1" cx="1999" cy="1999" r="2000" href="#P"><stop stop-color="#fff" stop-opacity="0"/><stop offset="100" stop-color="#fff" stop-opacity="0"/></radialGradient></defs><style>.a{fill:url(#g1)}.b{fill:#62c6ae}</style><path class="a" d="m-1-1h40v40h-40z"/><path fill-rule="evenodd" class="b" d="m6.5 26.7q0.6 0.1 1.2 0.1c2.3 0 4.6-0.8 6.4-2.2-2.2 0-4.1-1.4-4.8-3.5q1.2 0.2 2.3-0.1c-2.4-0.4-4.1-2.5-4.1-4.9q0 0 0-0.1c0.7 0.4 1.5 0.6 2.3 0.7-2.2-1.5-2.9-4.5-1.6-6.8 2.6 3.2 6.5 5.1 10.6 5.3-0.5-2.2 0.5-4.5 2.6-5.6 2-1.1 4.6-0.7 6.2 1q1.7-0.3 3.2-1.2c-0.4 1.1-1.2 2.1-2.2 2.8q1.5-0.2 2.9-0.8-1 1.5-2.6 2.6 0.1 0.3 0.1 0.6c0 6.7-5.2 14.4-14.6 14.4-2.8 0-5.6-0.8-7.9-2.3z"/></svg>