<svg version="1.2" xmlns="http://www.w3.org/2000/svg" viewBox="0 0 38 38" width="38" height="38"><defs><linearGradient id="P" gradientUnits="userSpaceOnUse"/><radialGradient id="g1" cx="1999" cy="1999" r="2000" href="#P"><stop stop-color="#fff" stop-opacity="0"/><stop offset="100" stop-color="#fff" stop-opacity="0"/></radialGradient></defs><style>.a{fill:url(#g1)}.b{fill:#62c6ae}</style><path class="a" d="m-1-1h40v40h-40z"/><path fill-rule="evenodd" class="b" d="m19 7c3.3 0 3.7 0 4.9 0.1 1.3 0 2.2 0.2 3 0.5 0.7 0.3 1.4 0.7 2.1 1.4 0.7 0.7 1.1 1.4 1.4 2.1 0.3 0.8 0.5 1.7 0.5 3 0.1 1.2 0.1 1.6 0.1 4.9 0 3.3 0 3.7-0.1 4.9 0 1.3-0.2 2.2-0.5 3-0.3 0.7-0.7 1.4-1.4 2.1-0.7 0.7-1.4 1.1-2.1 1.4-0.8 0.3-1.7 0.5-3 0.5-1.2 0.1-1.6 0.1-4.9 0.1-3.3 0-3.7 0-4.9-0.1-1.3 0-2.2-0.2-3-0.5-0.7-0.3-1.4-0.7-2.1-1.4-0.7-0.7-1.1-1.4-1.4-2.1-0.3-0.8-0.5-1.7-0.5-3-0.1-1.2-0.1-1.6-0.1-4.9 0-3.3 0-3.7 0.1-4.9 0-1.3 0.2-2.2 0.5-3 0.3-0.7 0.7-1.4 1.4-2.1 0.7-0.7 1.4-1.1 2.1-1.4 0.8-0.3 1.7-0.5 3-0.5 1.2-0.1 1.6-0.1 4.9-0.1zm0 2.2c-3.2 0-3.6 0-4.8 0-1.2 0.1-1.9 0.3-2.3 0.4-0.5 0.3-0.9 0.5-1.4 0.9-0.4 0.5-0.6 0.9-0.9 1.4-0.1 0.4-0.3 1.1-0.4 2.3 0 1.2 0 1.6 0 4.8 0 3.2 0 3.6 0 4.8 0.1 1.2 0.3 1.9 0.4 2.3 0.3 0.5 0.5 0.9 0.9 1.4 0.5 0.4 0.9 0.6 1.4 0.9 0.4 0.1 1.1 0.3 2.3 0.4 1.2 0 1.6 0 4.8 0 3.2 0 3.6 0 4.8 0 1.2-0.1 1.9-0.3 2.3-0.4 0.5-0.3 0.9-0.5 1.4-0.9 0.4-0.5 0.6-0.9 0.9-1.4 0.1-0.4 0.3-1.1 0.4-2.3 0-1.2 0-1.6 0-4.8 0-3.2 0-3.6 0-4.8-0.1-1.2-0.3-1.9-0.4-2.3-0.3-0.5-0.5-0.9-0.9-1.4-0.5-0.4-0.9-0.6-1.4-0.9-0.4-0.1-1.1-0.3-2.3-0.4-1.2 0-1.6 0-4.8 0zm0 3.6c3.4 0 6.2 2.8 6.2 6.2 0 3.4-2.8 6.2-6.2 6.2-3.4 0-6.2-2.8-6.2-6.2 0-3.4 2.8-6.2 6.2-6.2zm0 10.2c2.2 0 4-1.8 4-4 0-2.2-1.8-4-4-4-2.2 0-4 1.8-4 4 0 2.2 1.8 4 4 4zm7.8-10.4c0 0.8-0.6 1.4-1.4 1.4-0.8 0-1.4-0.6-1.4-1.4 0-0.8 0.6-1.4 1.4-1.4 0.8 0 1.4 0.6 1.4 1.4z"/></svg>