<svg version="1.2" xmlns="http://www.w3.org/2000/svg" viewBox="0 0 38 38" width="38" height="38"><defs><linearGradient id="P" gradientUnits="userSpaceOnUse"/><radialGradient id="g1" cx="1999" cy="1999" r="2000" href="#P"><stop stop-color="#fff" stop-opacity="0"/><stop offset="100" stop-color="#fff" stop-opacity="0"/></radialGradient></defs><style>.a{fill:url(#g1)}.b{fill:#62c6ae}</style><path class="a" d="m-1-1h40v40h-40z"/><path fill-rule="evenodd" class="b" d="m25.2 29c0 0-0.8-1-1.5-1.8 2.9-0.9 4-2.7 4-2.7-0.9 0.6-1.7 1-2.5 1.3q-1.7 0.7-3.2 1c-2.2 0.4-4.1 0.3-5.8 0-1.3-0.3-2.4-0.6-3.3-1q-0.8-0.3-1.6-0.8-0.1 0-0.2-0.1-0.1 0-0.1-0.1c-0.4-0.2-0.6-0.3-0.6-0.3 0 0 1.1 1.8 3.9 2.6-0.7 0.9-1.5 1.9-1.5 1.9-4.9-0.2-6.8-3.4-6.8-3.4 0-7.3 3.2-13.2 3.2-13.2 3.2-2.5 6.3-2.4 6.3-2.4l0.2 0.3c-4 1.1-5.9 2.9-5.9 2.9 0 0 0.5-0.2 1.3-0.6 2.4-1.1 4.3-1.4 5.1-1.4q0.2-0.1 0.4-0.1c1.3-0.2 2.9-0.2 4.5 0 2.1 0.2 4.4 0.8 6.7 2.1 0 0-1.8-1.7-5.6-2.8l0.3-0.4c0 0 3.1-0.1 6.3 2.4 0 0 3.2 5.9 3.2 13.2 0 0-1.9 3.2-6.8 3.4zm-10.4-10.6c-1.2 0-2.2 1.2-2.2 2.5 0 1.4 1 2.6 2.2 2.6 1.3 0 2.3-1.2 2.3-2.6 0-1.3-1-2.5-2.3-2.5zm8.2 0c-1.3 0-2.3 1.2-2.3 2.5 0 1.4 1 2.6 2.3 2.6 1.2 0 2.2-1.2 2.2-2.6 0-1.3-1-2.5-2.2-2.5z"/></svg>