<svg version="1.2" xmlns="http://www.w3.org/2000/svg" viewBox="0 0 134 40" width="134" height="40"><defs><linearGradient id="P" gradientUnits="userSpaceOnUse"/><radialGradient id="g1" cx="6749" cy="2000" r="6750" href="#P"><stop stop-color="#fff" stop-opacity="0"/><stop offset="100" stop-color="#fff" stop-opacity="0"/></radialGradient></defs><style>.a{fill:url(#g1)}.b{fill:#62c6ae}</style><path class="a" d="m-1 0h135v40h-135z"/><path fill-rule="evenodd" class="b" d="m28.9 21.2c0 4.8 4.2 6.4 4.2 6.4 0 0.2-0.6 2.4-2.2 4.6-1.3 2-2.7 3.9-4.9 3.9-2.1 0.1-2.8-1.2-5.2-1.2-2.5 0-3.3 1.2-5.3 1.3-2.1 0.1-3.7-2.1-5-4.1-2.8-4-4.9-11.2-2-16.1 1.3-2.5 3.9-4 6.5-4.1 2.1 0 4.1 1.4 5.3 1.4 1.3 0 3.7-1.7 6.2-1.4 1 0 3.9 0.4 5.8 3.1-0.1 0.1-3.5 2.1-3.4 6.2zm-4.1-12c-1.1 1.4-2.9 2.4-4.7 2.3-0.2-1.8 0.7-3.8 1.7-5 1.1-1.3 3.1-2.3 4.7-2.4 0.2 1.9-0.6 3.8-1.7 5.1z"/><path fill-rule="evenodd" class="b" d="m54.7 33.6l-1.2-3.6h-5.1l-1.2 3.6h-2.2l4.9-13.2h2.2l4.9 13.2zm-3.9-11l-2 5.8h4.1l-2-5.8zm12.4 1.2c2.4 0 4.1 1.9 4.1 5 0 3-1.6 4.9-4.1 4.9-1.4 0-2.5-0.6-3.1-1.7v4.7h-2v-12.7h1.9v1.6c0.6-1.1 1.7-1.8 3.2-1.8zm-0.6 8.3c1.6 0 2.6-1.3 2.6-3.3 0-2.1-1-3.3-2.6-3.3-1.5 0-2.5 1.3-2.5 3.3 0 2 1 3.3 2.5 3.3zm11.3-8.3c2.5 0 4.2 1.9 4.2 5 0 3-1.7 4.9-4.1 4.9-1.4 0-2.6-0.6-3.1-1.7h-0.1v4.7h-2v-12.7h2v1.6c0.6-1.1 1.7-1.8 3.1-1.8zm-0.5 8.3c1.6 0 2.6-1.3 2.6-3.3 0-2.1-1-3.3-2.6-3.3-1.5 0-2.6 1.3-2.6 3.3 0 2 1.1 3.3 2.6 3.3zm9.7-2.2h2.1c0.1 1.3 1.4 2.2 3.2 2.2 1.7 0 2.9-0.9 2.9-2.1 0-1-0.7-1.6-2.5-2l-1.7-0.4c-2.5-0.6-3.6-1.8-3.6-3.6 0-2.3 2-3.8 4.9-3.8 2.8 0 4.7 1.5 4.8 3.8h-2c-0.1-1.3-1.3-2.1-2.9-2.1-1.6 0-2.7 0.8-2.7 2 0 0.9 0.7 1.4 2.4 1.9l1.5 0.3c2.8 0.7 3.9 1.7 3.9 3.7 0 2.4-2 4-5.2 4-2.9 0-5-1.5-5.1-3.9zm12.5-8.2h2.1v2.3h1.8v1.5h-1.8v5.3c0 0.8 0.3 1.2 1.2 1.2 0.2 0 0.5 0 0.6 0v1.5c-0.2 0.1-0.7 0.1-1.1 0.1-2 0-2.8-0.7-2.8-2.6v-5.5h-1.4v-1.5h1.4zm9.8 12c-2.8 0-4.7-1.9-4.7-5 0-3.1 1.9-4.9 4.7-4.9 2.8 0 4.6 1.8 4.6 4.9 0 3.1-1.8 5-4.6 5zm0-1.6c1.6 0 2.6-1.2 2.6-3.4 0-2.1-1-3.3-2.6-3.3-1.6 0-2.6 1.2-2.6 3.3 0 2.2 1 3.4 2.6 3.4zm6.2 1.4v-9.6h1.9v1.7c0.4-1.2 1.2-1.8 2.4-1.8 0.3 0 0.5 0 0.7 0v1.9c-0.2-0.1-0.5-0.1-0.9-0.1-1.3 0-2.1 0.8-2.1 2.2v5.7zm12.7-2.8h1.9c-0.2 1.8-1.9 3-4.2 3-2.8 0-4.6-1.9-4.6-4.9 0-3 1.8-5 4.5-5 2.8 0 4.5 1.8 4.5 4.7v0.7h-7v0.1c0 1.7 1.1 2.8 2.7 2.8 1.1 0 2-0.5 2.2-1.4zm-2.4-5.4c-1.4 0-2.3 1.1-2.5 2.5h4.9c0-1.4-0.9-2.5-2.4-2.5z"/><path fill-rule="evenodd" class="b" d="m46.7 7.2h2.7c2.3 0 3.7 1.5 3.7 3.9 0 2.5-1.4 3.9-3.7 3.9h-2.7zm1.2 1v5.7h1.4c1.6 0 2.5-1 2.5-2.8 0-1.9-0.9-2.9-2.5-2.9zm8.6 6.9c-1.6 0-2.7-1.2-2.7-3 0-1.8 1.1-2.9 2.7-2.9 1.6 0 2.7 1.1 2.7 2.9 0 1.8-1.1 3-2.7 3zm0-1c0.9 0 1.5-0.7 1.5-2 0-1.2-0.6-1.9-1.5-1.9-0.9 0-1.5 0.7-1.5 1.9 0 1.3 0.6 2 1.5 2zm11-4.8l-1.6 5.7h-1.2l-1.2-4.3-1.2 4.3h-1.2l-1.5-5.7h1.2l1 4.4 1.2-4.4h1.1l1.2 4.4 1-4.4zm0.7 5.7v-5.7h1.1v0.9h0.1c0.3-0.6 0.9-1 1.7-1 1.3 0 2 0.8 2 2.1v3.7h-1.2v-3.5c0-0.8-0.4-1.3-1.2-1.3-0.8 0-1.3 0.6-1.3 1.5v3.3zm6 0v-7.8h1.2v7.8zm4.7 0.1c-1.6 0-2.7-1.2-2.7-3 0-1.8 1.1-2.9 2.7-2.9 1.6 0 2.7 1.1 2.7 2.9 0 1.8-1.1 3-2.7 3zm0-1c0.9 0 1.5-0.7 1.5-2 0-1.2-0.6-1.9-1.5-1.9-0.9 0-1.5 0.7-1.5 1.9 0 1.3 0.6 2 1.5 2zm5.2 0.9c-1.1 0-1.8-0.6-1.8-1.7 0-0.9 0.7-1.6 2.1-1.6l1.5-0.1v-0.5c0-0.6-0.4-1-1.1-1-0.7 0-1.1 0.4-1.2 0.9h-1.1c0-1.1 0.9-1.8 2.3-1.8 1.4 0 2.3 0.7 2.3 1.9v3.9h-1.2v-1c-0.3 0.6-1 1-1.8 1zm0.4-0.9c0.8 0 1.4-0.5 1.4-1.3v-0.4l-1.4 0.1c-0.7 0-1.1 0.3-1.1 0.8 0 0.5 0.4 0.8 1.1 0.8zm5.8 0.9c-1.4 0-2.4-1.1-2.4-2.9 0-1.8 1-2.9 2.4-2.9 0.8 0 1.4 0.4 1.7 1h0.1v-3h1.1v7.8h-1.1v-1c-0.3 0.6-1 1-1.8 1zm0.3-4.8c-0.9 0-1.5 0.7-1.5 1.9 0 1.2 0.6 2 1.5 2 0.9 0 1.5-0.8 1.5-2 0-1.1-0.6-1.9-1.5-1.9zm8.4 4.9c-1.6 0-2.6-1.2-2.6-3 0-1.8 1-2.9 2.6-2.9 1.6 0 2.7 1.1 2.7 2.9 0 1.8-1 3-2.7 3zm0-1c1 0 1.5-0.7 1.5-2 0-1.2-0.6-1.9-1.5-1.9-0.9 0-1.5 0.7-1.5 1.9 0 1.3 0.6 2 1.5 2zm3.6 0.9v-5.7h1.1v0.9c0.3-0.6 0.9-1 1.8-1 1.3 0 2 0.8 2 2.1v3.7h-1.2v-3.5c0-0.8-0.4-1.3-1.2-1.3-0.8 0-1.3 0.6-1.3 1.5v3.3zm8.5-7h1.1v1.3h1.1v0.9h-1.1v3.1c0 0.5 0.3 0.7 0.7 0.7 0.1 0 0.3 0 0.4 0v0.9c-0.1 0.1-0.4 0.1-0.6 0.1-1.2 0-1.6-0.4-1.6-1.5v-3.3h-0.8v-0.9h0.8zm3.2 7v-7.8h1.1v3.1h0.1c0.3-0.7 0.9-1.1 1.8-1.1 1.2 0 1.9 0.9 1.9 2.1v3.7h-1.1v-3.4c0-0.9-0.5-1.4-1.3-1.4-0.8 0-1.4 0.6-1.4 1.5v3.3zm9.8-1.7h1.1c-0.1 1.1-1.1 1.8-2.4 1.8-1.7 0-2.7-1.1-2.7-2.9 0-1.8 1.1-3 2.7-3 1.5 0 2.5 1.1 2.5 2.9v0.4h-4c0 1 0.6 1.7 1.5 1.7 0.7 0 1.2-0.4 1.3-0.9zm-1.3-3.1c-0.9 0-1.4 0.6-1.5 1.4h2.8c0-0.8-0.5-1.4-1.3-1.4z"/></svg>