<svg version="1.2" xmlns="http://www.w3.org/2000/svg" viewBox="0 0 38 38" width="38" height="38"><defs><linearGradient id="P" gradientUnits="userSpaceOnUse"/><radialGradient id="g1" cx="1999" cy="1999" r="2000" href="#P"><stop stop-color="#fff" stop-opacity="0"/><stop offset="100" stop-color="#fff" stop-opacity="0"/></radialGradient></defs><style>.a{fill:url(#g1)}.b{fill:#62c6ae}</style><path class="a" d="m-1-1h40v40h-40z"/><path fill-rule="evenodd" class="b" d="m19 32c-7.2 0-13-5.8-13-13 0-7.2 5.8-13 13-13 7.2 0 13 5.8 13 13 0 7.2-5.8 13-13 13zm8.3-13.1c0.1-1-0.8-1.8-1.8-1.8-0.5 0-0.9 0.2-1.3 0.5-1.4-1-3.1-1.6-4.9-1.6l0.9-4.1 2.7 0.6c0.1 0.7 0.7 1.3 1.4 1.2 0.7 0 1.2-0.6 1.2-1.3 0-0.7-0.6-1.3-1.3-1.3-0.5 0-0.9 0.3-1.2 0.8l-3-0.7q-0.1 0-0.2 0-0.1 0.1-0.2 0.2l-0.9 4.6c-1.8 0-3.5 0.6-5 1.6-0.3-0.3-0.8-0.5-1.2-0.5-1.1 0-1.9 0.8-1.9 1.8 0 0.8 0.5 1.4 1.1 1.8q0 0.2 0 0.5c0 3 3.2 5.3 7.3 5.3 4 0 7.3-2.3 7.3-5.3q0-0.3 0-0.5c0.6-0.4 1-1 1-1.8zm-12.5 1.4c0-0.7 0.6-1.3 1.3-1.3 0.7 0 1.3 0.6 1.3 1.3 0 0.7-0.6 1.3-1.3 1.3-0.7 0-1.3-0.6-1.3-1.3zm7.3 3.6c-0.9 0.9-2.6 1-3.1 1-0.5 0-2.2-0.1-3.1-1-0.1-0.2-0.1-0.4 0-0.5q0.1-0.1 0.2-0.1 0.2 0 0.3 0.1c0.5 0.6 1.7 0.8 2.6 0.8 0.8 0 2.1-0.2 2.6-0.8q0.1-0.1 0.2-0.1 0.2 0 0.3 0.1c0.1 0.1 0.1 0.3 0 0.5zm-0.3-2.2c-0.5 0-1-0.3-1.2-0.9-0.2-0.5-0.1-1 0.3-1.4 0.3-0.4 0.9-0.5 1.4-0.3 0.5 0.2 0.8 0.7 0.8 1.2 0.1 0.7-0.5 1.3-1.3 1.4z"/></svg>