<svg version="1.2" xmlns="http://www.w3.org/2000/svg" viewBox="0 0 38 38" width="38" height="38"><defs><linearGradient id="P" gradientUnits="userSpaceOnUse"/><radialGradient id="g1" cx="1999" cy="1999" r="2000" href="#P"><stop stop-color="#fff" stop-opacity="0"/><stop offset="100" stop-color="#fff" stop-opacity="0"/></radialGradient></defs><style>.a{fill:url(#g1)}.b{fill:#62c6ae}</style><path class="a" d="m-1-1h40v40h-40z"/><path fill-rule="evenodd" class="b" d="m19 6c6.4 0 11.8 4.7 12.8 11.2 1.1 6.4-2.6 12.7-8.7 14.8-0.6 0.1-0.9-0.3-0.9-0.7 0-0.4 0-1.8 0-3.6 0-1.3-0.4-2.1-0.8-2.5 2.9-0.3 5.9-1.4 5.9-6.6 0-1.4-0.5-2.6-1.3-3.5 0.1-0.4 0.5-1.7-0.2-3.6 0 0-1.1-0.3-3.5 1.4-2.2-0.6-4.4-0.6-6.6 0-2.4-1.7-3.5-1.4-3.5-1.4-0.7 1.9-0.3 3.2-0.2 3.6-0.8 0.9-1.3 2.2-1.3 3.5 0 5.1 3 6.3 5.9 6.6-0.3 0.4-0.7 0.9-0.8 1.8-0.7 0.3-2.6 0.9-3.8-1.1 0 0-0.7-1.3-2-1.4 0 0-1.2 0-0.1 0.8 0 0 0.9 0.4 1.5 2 0 0 0.7 2.6 4.4 1.8 0 1.1 0 1.9 0 2.2 0 0.4-0.3 0.8-0.9 0.7-6.1-2.1-9.8-8.3-8.7-14.8 1-6.5 6.4-11.2 12.8-11.2z"/></svg>