<svg version="1.2" xmlns="http://www.w3.org/2000/svg" viewBox="0 0 134 40" width="134" height="40"><defs><linearGradient id="P" gradientUnits="userSpaceOnUse"/><radialGradient id="g1" cx="6749" cy="2000" r="6750" href="#P"><stop stop-color="#fff" stop-opacity="0"/><stop offset="100" stop-color="#fff" stop-opacity="0"/></radialGradient></defs><style>.a{fill:url(#g1)}.b{fill:#62c6ae}</style><path class="a" d="m-1 0h135v40h-135z"/><path fill-rule="evenodd" class="b" d="m6 4.5l17.3 9.8-3.9 4.1zm25.1 15.7l-6.4 3.6-4.2-4.4 4.2-4.3 6.4 3.7q1.2 0.7 0 1.4zm-28.3-16q0-0.5 0.1-0.8l15.4 16-15.4 16q-0.1-0.2-0.1-0.7zm20.4 20.4l-17.2 9.8 13.4-13.8z"/><path fill-rule="evenodd" class="b" d="m123.5 35.2h-1.7l2.1-4.6-3.8-8.7h1.9l2.7 6.7h0.1l2.6-6.7h1.9zm-8-13.3c2.2 0 4 1.3 4 3.9v5.5h-1.6v-1.2h-0.1c-0.5 0.7-1.4 1.5-3 1.5-1.8 0-3.4-1.1-3.4-3 0-2.1 1.9-3.2 4-3.2 1.3 0 2.2 0.3 2.5 0.6v-0.3c0-1.4-1.1-2.2-2.4-2.2-0.9 0-1.8 0.4-2.1 1.3l-1.6-0.7c0.3-0.8 1.4-2.2 3.7-2.2zm-0.4 8.2c1.4 0 2.8-1.2 2.8-2.7 0 0-0.7-0.6-2.2-0.6-1.8 0-2.5 1-2.5 1.8 0 1 1 1.5 1.9 1.5zm-6.2-11.8h1.5v13.3h-1.5zm-5.6 0c2.2 0 4.1 1.7 4.1 4 0 2.3-1.9 4-4.1 4h-2.8v5.3h-1.7v-13.3zm0 6.3c1.5 0 2.4-1.2 2.4-2.3 0-1.1-0.9-2.3-2.4-2.3h-2.8v4.6zm-13.9 7.1c-2.6 0-4.5-1.9-4.5-4.4 0-2.7 1.9-4.5 4.3-4.5 2.3 0 3.4 1.8 3.8 2.8l0.2 0.5-6 2.5q0.7 1.4 2.2 1.4c1 0 1.7-0.5 2.2-1.3l1.5 1c-0.5 0.8-1.7 2-3.7 2zm-2.5-4.6l4-1.6c-0.2-0.6-0.9-1-1.7-1-1 0-2.4 0.9-2.3 2.6zm-4.9 4.4v-13.2h2v13.2zm-5.7 4.2c-2.1 0-3.5-1.4-3.9-2.6l1.7-0.7c0.3 0.7 1 1.6 2.2 1.6 1.5 0 2.4-0.9 2.4-2.6v-0.7c-0.5 0.6-1.3 1-2.4 1-2.2 0-4.3-1.9-4.3-4.4 0-2.6 2.1-4.5 4.3-4.5 1.1 0 1.9 0.4 2.4 1v-0.8h1.9v8.1c0 3.3-1.9 4.6-4.3 4.6zm0.2-5.7c1.3 0 2.4-1.2 2.4-2.7 0-1.6-1.1-2.8-2.4-2.8-1.4 0-2.5 1.2-2.5 2.8 0 1.5 1.1 2.7 2.5 2.7zm-9.8 1.7c-2.5 0-4.5-1.9-4.5-4.4 0-2.6 2-4.5 4.5-4.5 2.5 0 4.5 1.9 4.5 4.5 0 2.5-2 4.4-4.5 4.4zm0-1.7c1.3 0 2.5-1.2 2.5-2.7 0-1.7-1.2-2.8-2.5-2.8-1.4 0-2.6 1.1-2.6 2.8 0 1.5 1.2 2.7 2.6 2.7zm-9.9 1.7c-2.5 0-4.5-1.9-4.5-4.4 0-2.6 2-4.5 4.5-4.5 2.5 0 4.5 1.9 4.5 4.5 0 2.5-2 4.4-4.5 4.4zm0-1.7c1.4 0 2.6-1.2 2.6-2.7 0-1.7-1.2-2.8-2.6-2.8-1.3 0-2.5 1.1-2.5 2.8 0 1.5 1.2 2.7 2.5 2.7zm-11.7 1.7c-3.8 0-7.1-3.1-7.1-6.9 0-3.9 3.3-7 7.1-7 2.1 0 3.7 0.9 4.8 1.9l-1.3 1.4c-0.9-0.8-2-1.4-3.5-1.4-2.8 0-5 2.3-5 5.1 0 2.8 2.2 5 5 5 1.8 0 2.9-0.7 3.5-1.4q0.9-0.8 1.1-2.4h-4.6v-1.9h6.4q0.1 0.6 0.1 1.2c0 1.5-0.4 3.2-1.6 4.5-1.2 1.2-2.8 1.9-4.9 1.9z"/><path fill-rule="evenodd" class="b" d="m42.7 10.8q0 0.1-0.2 0.3-0.2 0.1-0.4 0.3-0.3 0.1-0.6 0.2-0.4 0.1-0.9 0.1-0.5 0-1-0.2-0.4-0.2-0.7-0.6-0.4-0.3-0.6-0.9-0.1-0.5-0.1-1.1v-0.4q0-0.7 0.1-1.2 0.2-0.5 0.5-0.9 0.3-0.4 0.7-0.5 0.5-0.2 1-0.2 0.6 0 1 0.1 0.3 0.1 0.6 0.4 0.3 0.2 0.4 0.6 0.2 0.3 0.2 0.7h-0.9q-0.1-0.2-0.2-0.4 0-0.2-0.2-0.3-0.1-0.2-0.3-0.2-0.3-0.1-0.5-0.1-0.4 0-0.7 0.1-0.2 0.1-0.4 0.4-0.2 0.3-0.2 0.6-0.1 0.4-0.1 0.9v0.4q0 0.4 0.1 0.8 0.1 0.4 0.3 0.6 0.2 0.3 0.4 0.4 0.3 0.1 0.7 0.1 0.2 0 0.4 0 0.2 0 0.3-0.1 0.1 0 0.2-0.1 0.1 0 0.2-0.1v-1.1h-1.2v-0.8h2.1zm4.5-1.9h-2.4v1.8h2.8v0.8h-3.8v-5.8h3.8v0.8h-2.8v1.6h2.4zm5.4-2.4h-1.8v5h-1v-5h-1.8v-0.8h4.6zm3.8 5h-1v-5.8h1zm5.4-5h-1.8v5h-1v-5h-1.8v-0.8h4.6zm7.4 2.2q0 0.7-0.2 1.2-0.2 0.5-0.5 0.9-0.3 0.4-0.7 0.6-0.5 0.2-1 0.2-0.5 0-1-0.2-0.4-0.2-0.7-0.6-0.4-0.4-0.5-0.9-0.2-0.5-0.2-1.2v-0.3q0-0.6 0.2-1.2 0.1-0.5 0.5-0.9 0.3-0.3 0.7-0.5 0.4-0.2 1-0.2 0.5 0 0.9 0.2 0.5 0.2 0.8 0.5 0.3 0.4 0.5 0.9 0.2 0.6 0.2 1.2zm-1-0.3q0-0.5-0.1-0.8-0.1-0.4-0.3-0.7-0.2-0.2-0.4-0.3-0.3-0.2-0.6-0.2-0.3 0-0.6 0.2-0.3 0.1-0.4 0.3-0.2 0.3-0.3 0.7-0.1 0.3-0.1 0.8v0.3q0 0.5 0.1 0.9 0.1 0.4 0.3 0.6 0.1 0.3 0.4 0.4 0.3 0.1 0.6 0.1 0.6 0 1-0.5 0.4-0.5 0.4-1.5zm6.5 3.1h-1l-2.5-4.1v4.1h-1v-5.8h1l2.5 4.1v-4.1h1z"/></svg>