<svg version="1.2" xmlns="http://www.w3.org/2000/svg" viewBox="0 0 360 110" width="360" height="110"><style>.a{fill:#212124}.b{fill:#62c6ae}</style><path class="a" d="m0 0h360v110h-360z"/><path fill-rule="evenodd" class="b" d="m70.1 64.1v6.3h7.3v2.1h-7.3v6.4h8.3v2.1h-10.4v-19h10.4v2.1zm22.9 5v11.9h-2.1v-1.7q-0.7 0.9-1.9 1.4-1.1 0.5-2.5 0.5-1.5 0-2.9-0.8-1.4-0.9-2.2-2.3-0.8-1.4-0.8-3.1 0-1.6 0.8-3.1 0.8-1.4 2.2-2.2 1.4-0.8 2.9-0.8 1.4 0 2.5 0.5 1.2 0.5 1.9 1.4v-1.7zm-6.2 10.1q1.2 0 2.1-0.6 1-0.5 1.5-1.5 0.6-0.9 0.6-2.1 0-1.1-0.6-2.1-0.5-0.9-1.5-1.5-0.9-0.5-2.1-0.5-1.1 0-2 0.5-1 0.6-1.5 1.5-0.6 1-0.6 2.1 0 1.2 0.6 2.1 0.5 1 1.5 1.5 0.9 0.6 2 0.6zm13.7 2q-1.4 0-2.5-0.4-1.1-0.4-2-1.1l1.2-1.7q0.6 0.6 1.5 0.9 0.9 0.4 1.9 0.4 1 0 1.6-0.4 0.7-0.5 0.7-1.3 0-0.6-0.4-0.9-0.3-0.4-0.8-0.6-0.5-0.1-1.4-0.4-1.3-0.4-2-0.7-0.7-0.3-1.3-0.9-0.5-0.7-0.5-1.7 0-1.1 0.6-1.9 0.5-0.8 1.5-1.2 1-0.4 2.2-0.4 1 0 2 0.3 1 0.3 1.8 0.8l-1.2 1.6q-1.3-0.9-2.8-0.9-1 0-1.6 0.4-0.6 0.4-0.6 1 0 0.5 0.4 0.9 0.3 0.3 0.8 0.5 0.5 0.2 1.5 0.4 0.2 0.1 0.3 0.1 1.1 0.3 1.8 0.6 0.7 0.4 1.2 1.1 0.5 0.6 0.5 1.7 0 1.2-0.6 2.1-0.5 0.8-1.5 1.3-1 0.4-2.3 0.4zm8.6-14.3q-0.6 0-1-0.4-0.4-0.4-0.4-1 0-0.6 0.4-1 0.4-0.4 1-0.4 0.5 0 0.9 0.4 0.5 0.4 0.5 1 0 0.6-0.5 1-0.4 0.4-0.9 0.4zm-1.1 2.2h2.1v11.9h-2.1zm6.4-7.1h2v19h-2zm16.2 7l-7.3 18h-2.2l2.4-6.1-4.8-11.9h2.3l3.7 9.6 3.5-9.6zm19.8 0v11.9h-2.1v-1.6q-0.7 0.9-1.9 1.4-1.1 0.5-2.5 0.5-1.5 0-2.9-0.9-1.4-0.8-2.2-2.2-0.8-1.4-0.8-3.1 0-1.7 0.8-3.1 0.8-1.4 2.2-2.2 1.4-0.9 2.9-0.9 1.4 0 2.5 0.5 1.2 0.5 1.9 1.4v-1.7zm-6.2 10.2q1.2 0 2.1-0.6 1-0.6 1.5-1.5 0.6-1 0.6-2.1 0-1.1-0.6-2.1-0.5-0.9-1.5-1.5-0.9-0.5-2.1-0.5-1.1 0-2 0.5-1 0.6-1.6 1.5-0.5 1-0.5 2.1 0 1.1 0.5 2.1 0.6 0.9 1.6 1.5 0.9 0.6 2 0.6zm15.4-10.4q1.2 0 2.2 0.6 1 0.6 1.6 1.6 0.5 1 0.5 2.1v7.8h-2v-7.6q0-0.7-0.4-1.3-0.3-0.6-0.9-0.9-0.6-0.3-1.3-0.3-0.7 0-1.3 0.3-0.5 0.3-0.9 0.9-0.3 0.5-0.4 1.2v7.7h-2v-11.9h2v0.9q0.6-0.5 1.4-0.8 0.7-0.3 1.5-0.3zm19.5-6.8v18.9h-2.1v-1.6q-0.8 0.9-1.9 1.4-1.1 0.5-2.5 0.5-1.6 0-2.9-0.9-1.4-0.8-2.2-2.2-0.8-1.4-0.8-3.1 0-1.7 0.8-3.1 0.8-1.4 2.2-2.2 1.3-0.9 2.9-0.9 1.4 0 2.5 0.5 1.1 0.5 1.9 1.4v-8.7zm-6.2 17.2q1.1 0 2.1-0.6 0.9-0.6 1.5-1.5 0.5-1 0.5-2.1 0-1.1-0.5-2.1-0.6-0.9-1.5-1.5-0.9-0.5-2.1-0.5-1.1 0-2.1 0.5-0.9 0.6-1.5 1.5-0.5 1-0.5 2.1 0 1.1 0.5 2.1 0.6 0.9 1.5 1.5 1 0.6 2.1 0.6zm17.3-17.2h2.1v18.9h-2.1zm11.9 6.9q1.2 0 2.2 0.6 0.9 0.6 1.5 1.6 0.6 0.9 0.6 2.1v7.8h-2.1v-7.7q0-0.6-0.3-1.2-0.3-0.6-0.9-0.9-0.6-0.4-1.3-0.4-0.7 0-1.3 0.4-0.6 0.3-0.9 0.8-0.4 0.6-0.4 1.3v7.7h-2.1v-11.9h2.1v0.9q0.6-0.5 1.3-0.8 0.8-0.3 1.6-0.3zm13.5 2.1h-2.5v10h-2.1v-10h-2.4v-1.9h2.4v-4.2h2.1v4.2h2.5zm6.8 10.2q-1.4 0-2.4-0.5-1.1-0.6-1.6-1.6-0.6-1-0.6-2.4v-7.6h2.1v7.4q0 0.8 0.3 1.4 0.3 0.7 0.9 1 0.5 0.3 1.3 0.3 0.7 0 1.2-0.3 0.6-0.3 0.9-1 0.3-0.6 0.3-1.4v-7.4h2.1v7.6q0 1.4-0.5 2.4-0.6 1-1.6 1.6-1.1 0.5-2.4 0.5zm9.5-14.3q-0.6 0-1-0.4-0.4-0.4-0.4-0.9 0-0.6 0.4-1 0.4-0.4 1-0.4 0.5 0 1 0.4 0.4 0.4 0.4 1 0 0.5-0.4 0.9-0.5 0.4-1 0.4zm-1.1 2.2h2.1v11.9h-2.1zm11.7 1.9h-2.5v10h-2.1v-10h-2.5v-1.9h2.5v-4.3h2.1v4.3h2.5zm3.5-4.1q-0.6 0-1-0.4-0.4-0.4-0.4-0.9 0-0.6 0.4-1 0.4-0.4 1-0.4 0.5 0 1 0.4 0.4 0.4 0.4 1 0 0.5-0.4 0.9-0.5 0.4-1 0.4zm-1 2.2h2v11.9h-2zm15.7 0l-5.8 12.4-5.7-12.4h2.2l3.5 8.1 3.6-8.1zm13.1 6.2h-10.5q0.1 1.2 0.7 2.1 0.6 0.9 1.5 1.4 1 0.6 2.1 0.6 1.1 0 2.1-0.6 0.9-0.5 1.5-1.4l1.8 0.7q-0.8 1.4-2.2 2.3-1.5 0.8-3.2 0.8-1.7 0-3.1-0.8-1.5-0.8-2.3-2.2-0.8-1.5-0.8-3.1 0-1.7 0.8-3.1 0.9-1.5 2.3-2.3 1.4-0.8 3.1-0.8 1.7 0 3.1 0.8 1.4 0.8 2.2 2.2 0.9 1.4 0.9 3zm-6.2-4.5q-0.9 0-1.8 0.3-0.8 0.4-1.4 1.1-0.6 0.6-0.8 1.5h8q-0.3-0.9-0.9-1.5-0.6-0.7-1.4-1.1-0.8-0.3-1.7-0.3zm9-8.8h2.1v19h-2.1zm16.2 7.1l-7.2 18h-2.2l2.4-6.1-4.8-11.9h2.3l3.7 9.5 3.5-9.5z"/><path fill-rule="evenodd" class="b" d="m64.1 21.3l6.8 26.2h-9.3l-1.1-5.6h-6.1l-1.1 5.6h-6.3l6.3-26.2zm-6.1 4h-0.6l-2.4 12.3h5zm23 22.7q-1.7 0-3.3-0.6-1.5-0.7-2.7-1.9-1.1-1.3-1.8-3.3-0.7-2-0.7-4.8 0-2.8 0.7-4.9 0.7-2 1.9-3.2 1.1-1.3 2.6-1.8 1.5-0.6 3-0.6 1 0 2 0.2 1 0.3 1.9 0.7 0.8 0.5 1.5 1.1 0.7 0.5 1.1 1.3v-11.3h7.5v28.5h-7.5v-3.3q-0.4 0.9-1.1 1.7-0.7 0.7-1.5 1.2-0.8 0.4-1.8 0.7-0.9 0.3-1.8 0.3zm-1-10.5q0 1.5 0.3 2.5 0.3 1 0.8 1.7 0.6 0.6 1.2 0.8 0.7 0.3 1.3 0.3 0.7 0 1.4-0.3 0.6-0.2 1.1-0.8 0.5-0.7 0.8-1.7 0.3-1 0.3-2.6 0-1.5-0.3-2.5-0.3-1-0.8-1.6-0.5-0.7-1.1-0.9-0.7-0.3-1.3-0.3-0.7 0-1.4 0.3-0.6 0.2-1.1 0.9-0.6 0.6-0.9 1.6-0.3 1-0.3 2.6zm27.4 10.5q-1.7 0-3.3-0.6-1.5-0.7-2.7-1.9-1.1-1.3-1.8-3.3-0.7-2-0.7-4.8 0-2.8 0.7-4.9 0.7-2 1.9-3.2 1.1-1.3 2.6-1.8 1.5-0.6 3-0.6 1 0 2 0.2 1 0.3 1.9 0.7 0.8 0.5 1.5 1.1 0.7 0.5 1.1 1.3v-11.3h7.5v28.5h-7.5v-3.3q-0.4 0.9-1.1 1.7-0.7 0.7-1.5 1.2-0.8 0.4-1.8 0.7-0.9 0.3-1.8 0.3zm-1-10.5q0 1.5 0.3 2.5 0.3 1 0.9 1.7 0.5 0.6 1.1 0.8 0.7 0.3 1.4 0.3 0.6 0 1.3-0.3 0.6-0.2 1.1-0.8 0.5-0.7 0.8-1.7 0.3-1 0.3-2.6 0-1.5-0.3-2.5-0.3-1-0.8-1.6-0.5-0.7-1.1-0.9-0.7-0.3-1.3-0.3-0.7 0-1.4 0.3-0.6 0.2-1.1 0.9-0.6 0.6-0.9 1.6-0.3 1-0.3 2.6zm31.5-3.1q0-3.2 1-5.7 1.1-2.6 2.9-4.3 1.8-1.8 4.3-2.8 2.4-0.9 5.1-0.9 1.9 0 3.8 0.4 2 0.4 4 1.4l-1.1 5.9q-1.6-0.9-3-1.3-1.5-0.5-2.8-0.5-1.5 0-2.7 0.6-1.2 0.5-2 1.5-0.9 1-1.3 2.4-0.5 1.5-0.5 3.3 0 1.8 0.5 3.2 0.4 1.4 1.3 2.4 0.8 1 2 1.6 1.2 0.5 2.7 0.5 1.3 0 2.8-0.5 1.4-0.4 3-1.3l1.1 5.9q-2 1-4 1.4-1.9 0.4-3.8 0.4-2.7 0-5.1-1-2.5-0.9-4.3-2.7-1.8-1.7-2.9-4.2-1-2.6-1-5.7zm35.4 13.6q-2.1 0-3.7-0.4-1.6-0.5-2.8-1.2-1.2-0.7-2-1.7-0.8-1-1.4-2.2-0.5-1.1-0.7-2.4-0.3-1.3-0.3-2.7 0-1.3 0.3-2.6 0.2-1.3 0.7-2.4 0.6-1.2 1.4-2.2 0.8-1 2-1.7 1.2-0.8 2.8-1.2 1.6-0.4 3.7-0.4 2 0 3.6 0.4 1.6 0.4 2.8 1.2 1.3 0.7 2.1 1.7 0.8 1 1.4 2.2 0.5 1.1 0.7 2.4 0.2 1.3 0.2 2.6 0 1.4-0.2 2.7-0.2 1.3-0.7 2.4-0.6 1.2-1.4 2.2-0.9 1-2.1 1.7-1.2 0.7-2.8 1.2-1.6 0.4-3.6 0.4zm-3.3-10.6q0 1 0.1 2 0.2 1 0.6 1.7 0.4 0.8 1 1.2 0.7 0.5 1.6 0.5 0.9 0 1.6-0.5 0.6-0.4 1-1.2 0.4-0.7 0.6-1.7 0.1-1 0.1-2 0-1-0.1-1.9-0.2-1-0.6-1.7-0.4-0.8-1-1.2-0.7-0.5-1.6-0.5-0.9 0-1.6 0.5-0.6 0.4-1 1.2-0.4 0.7-0.6 1.7-0.1 0.9-0.1 1.9zm18.2 10v-20h7.6q-0.1 0.6-0.3 1.6-0.1 1-0.1 2.1 0.6-1 1.5-1.7 0.9-0.8 2-1.3 1.1-0.6 2.3-0.9 1.2-0.3 2.4-0.3 1.4 0 2.6 0.5 1.2 0.4 2.1 1.3 1 1 1.5 2.5 0.5 1.5 0.5 3.6v12.6h-7.5v-11.4q0-1.1-0.2-1.9-0.2-0.8-0.6-1.2-0.4-0.4-1-0.6-0.5-0.2-1.2-0.2-0.7 0-1.3 0.2-0.7 0.3-1.3 0.7-0.5 0.4-0.9 1-0.4 0.6-0.5 1.2v12.2zm36.6 0.6q-1.6 0-3.1-0.4-1.5-0.5-2.6-1.5-1.1-1-1.8-2.6-0.6-1.6-0.6-4.1v-7.4h-3.5v-1.2l8.2-9.5h2.8v6.1h5.5q-0.2 1.1-0.3 2.3-0.2 1.1-0.2 2.3h-5v7.3q0 0.7 0.1 1.3 0.1 0.6 0.4 1.1 0.3 0.5 0.8 0.8 0.6 0.3 1.5 0.3 0.6 0 1.3-0.1 0.7-0.2 1.6-0.5l0.4 4.8q-1.1 0.4-2.5 0.7-1.4 0.3-3 0.3zm13.5 0q-1.1 0-2.1-0.4-1-0.3-1.8-1-0.8-0.7-1.3-1.7-0.4-1.1-0.4-2.5 0-1.4 0.4-2.4 0.4-1 1.1-1.7 0.7-0.7 1.7-1.2 0.9-0.5 2-0.7 1-0.3 2.1-0.4 1.2-0.1 2.2-0.1 0.8 0 1.4 0 0.7 0 1.3 0.1 0-1.2-0.4-1.9-0.4-0.8-1-1.3-0.6-0.4-1.5-0.6-0.8-0.2-1.7-0.2-0.9 0-1.8 0.1-0.9 0.1-1.7 0.3-0.9 0.2-1.7 0.4-0.7 0.2-1.3 0.4v-5.2q0.8-0.2 1.8-0.4 1-0.2 2.1-0.4 1-0.1 2.1-0.2 1.1-0.1 2.2-0.1 1.3 0 2.6 0.2 1.3 0.2 2.5 0.6 1.2 0.4 2.1 1.1 1 0.6 1.7 1.7 0.7 1 1.1 2.3 0.4 1.4 0.4 3.2v11.4h-7.1v-3.3q-0.5 0.9-1.2 1.6-0.8 0.7-1.7 1.2-0.9 0.5-2 0.8-1 0.3-2.1 0.3zm2.9-4.4q0.5 0 1.2-0.3 0.6-0.3 1.2-0.9 0.5-0.6 0.9-1.5 0.4-0.9 0.4-2.1h-0.6q-0.8 0-1.7 0.1-0.8 0.2-1.6 0.6-0.7 0.4-1.2 0.9-0.4 0.6-0.4 1.3 0 0.5 0.1 0.9 0.2 0.4 0.5 0.6 0.2 0.2 0.6 0.3 0.3 0.1 0.6 0.1zm22.5-6.2q0 1.4 0.2 2.4 0.4 1 0.9 1.7 0.6 0.6 1.4 1 0.7 0.3 1.7 0.3 1.3 0 2.4-0.4 1.1-0.4 2.3-1l1.1 4.8q-0.8 0.5-1.7 0.8-0.9 0.3-1.8 0.5-0.9 0.2-1.9 0.4-1 0.1-1.9 0.1-2.1 0-4-0.7-1.8-0.6-3.2-1.9-1.4-1.3-2.2-3.3-0.9-2-0.9-4.7 0-2.7 0.9-4.7 0.8-2 2.2-3.3 1.4-1.3 3.2-1.9 1.9-0.6 4-0.6 0.9 0 1.9 0.1 1 0.1 1.9 0.3 0.9 0.2 1.8 0.6 0.9 0.3 1.7 0.7l-1.1 4.8q-1.2-0.6-2.3-0.9-1.1-0.4-2.4-0.4-1 0-1.7 0.3-0.8 0.3-1.4 1-0.5 0.7-0.9 1.7-0.2 1-0.2 2.3zm24.2 10.6q-1.6 0-3.1-0.4-1.5-0.5-2.6-1.5-1.1-1-1.8-2.6-0.7-1.6-0.7-4.1v-7.4h-3.4v-1.2l8.2-9.5h2.7v6.1h5.6q-0.2 1.1-0.4 2.3-0.1 1.1-0.1 2.3h-5.1v7.3q0 0.7 0.1 1.3 0.1 0.6 0.4 1.1 0.3 0.5 0.9 0.8 0.5 0.3 1.5 0.3 0.6 0 1.3-0.1 0.7-0.2 1.6-0.5l0.4 4.8q-1.1 0.4-2.5 0.7-1.4 0.3-3 0.3zm23.8-20.1l-0.2 5.5q-1.8-0.9-3.4-1.3-1.7-0.5-3-0.5-1.3 0-1.8 0.3-0.6 0.2-0.6 0.9 0 0.6 0.8 1 0.8 0.3 2.4 0.7 1.6 0.5 2.9 1 1.2 0.6 2.1 1.4 0.9 0.7 1.3 1.9 0.5 1.1 0.5 2.7 0 1.4-0.5 2.6-0.5 1.2-1.6 2.1-1.1 0.8-2.7 1.3-1.6 0.5-3.8 0.5-1.9 0-3.9-0.3-2-0.3-4-1.1v-5.8q1.8 0.9 3.6 1.4 1.8 0.5 3.5 0.5 2.9 0 2.9-1.3 0-0.2-0.1-0.4-0.2-0.2-0.6-0.4-0.3-0.2-1-0.4-0.7-0.2-1.7-0.4-1.4-0.4-2.7-1-1.3-0.6-2.3-1.4-0.9-0.9-1.4-2-0.6-1.1-0.6-2.6 0-1.3 0.5-2.4 0.5-1.1 1.6-1.8 1-0.8 2.5-1.2 1.6-0.5 3.6-0.5 1.2 0 2.3 0.1 1.1 0.1 2 0.3 1 0.1 1.9 0.3 0.8 0.2 1.5 0.3z"/></svg>