<?xml version="1.0" encoding="UTF-8"?>
<svg width="163px" height="14px" viewBox="0 0 163 14" version="1.1" xmlns="http://www.w3.org/2000/svg" xmlns:xlink="http://www.w3.org/1999/xlink">
    <!-- Generator: Sketch 52.1 (67048) - http://www.bohemiancoding.com/sketch -->
    <title>download-text</title>
    <desc>Created with Sketch.</desc>
    <g id="Page-1" stroke="none" stroke-width="1" fill="none" fill-rule="evenodd">
        <g id="Desktop-HD-Copy" transform="translate(-515.000000, -2693.000000)" fill="#212124">
            <g id="footer-buttons" transform="translate(501.000000, 2693.000000)">
                <path d="M14,0.177664975 L18.3077474,0.177664975 C19.7051817,0.177664975 20.9293987,0.479692411 21.9804351,1.08375635 C23.0314716,1.68782028 23.8382409,2.50951257 24.4007674,3.54885787 C24.963294,4.58820317 25.244553,5.73857237 25.244553,7 C25.244553,8.26142763 24.963294,9.41179683 24.4007674,10.4511421 C23.8382409,11.4904874 23.0314716,12.3121797 21.9804351,12.9162437 C20.9293987,13.5203076 19.7051817,13.822335 18.3077474,13.822335 L14,13.822335 L14,0.177664975 Z M18.192282,11.4327411 C19.0686391,11.4327411 19.8309992,11.2402727 20.479385,10.8553299 C21.1277709,10.4703872 21.6251553,9.94183923 21.9715532,9.26967005 C22.3179511,8.59750087 22.4911475,7.84095175 22.4911475,7 C22.4911475,6.15904825 22.3179511,5.40249913 21.9715532,4.73032995 C21.6251553,4.05816077 21.1277709,3.52961275 20.479385,3.14467005 C19.8309992,2.75972735 19.0686391,2.56725888 18.192282,2.56725888 L16.6379402,2.56725888 L16.6379402,11.4327411 L18.192282,11.4327411 Z M33.5571077,14 C32.2899427,14 31.1204972,13.6861284 30.0487361,13.0583756 C28.976975,12.4306229 28.1272766,11.5808006 27.4996155,10.5088832 C26.8719543,9.43696588 26.5581284,8.26734982 26.5581284,7 C26.5581284,5.73265018 26.8719543,4.56303412 27.4996155,3.49111675 C28.1272766,2.41919938 28.976975,1.56937708 30.0487361,0.941624365 C31.1204972,0.31387165 32.2899427,0 33.5571077,0 C34.830194,0 36.0026002,0.31387165 37.0743612,0.941624365 C38.1461223,1.56937708 38.9958207,2.41919938 39.6234819,3.49111675 C40.2511431,4.56303412 40.5649689,5.73265018 40.5649689,7 C40.5649689,8.26734982 40.2511431,9.43696588 39.6234819,10.5088832 C38.9958207,11.5808006 38.1461223,12.4306229 37.0743612,13.0583756 C36.0026002,13.6861284 34.830194,14 33.5571077,14 Z M33.5571077,11.4416244 C34.3801728,11.4416244 35.1306904,11.2461948 35.8086829,10.8553299 C36.4866754,10.4644651 37.0210676,9.92999493 37.4118755,9.25190355 C37.8026834,8.57381218 37.9980844,7.82318516 37.9980844,7 C37.9980844,6.17681484 37.8026834,5.42618782 37.4118755,4.74809645 C37.0210676,4.07000507 36.4866754,3.53553495 35.8086829,3.14467005 C35.1306904,2.75380515 34.3801728,2.55837563 33.5571077,2.55837563 C32.7399639,2.55837563 31.9909266,2.75380515 31.3099735,3.14467005 C30.6290203,3.53553495 30.0931478,4.07000507 29.7023399,4.74809645 C29.311532,5.42618782 29.116131,6.17681484 29.116131,7 C29.116131,7.82318516 29.311532,8.57381218 29.7023399,9.25190355 C30.0931478,9.92999493 30.6290203,10.4644651 31.3099735,10.8553299 C31.9909266,11.2461948 32.7399639,11.4416244 33.5571077,11.4416244 Z M59.6335692,0.177664975 L54.6330294,13.822335 L51.9595614,13.822335 L50.2098166,9.41624365 L48.4511898,13.822335 L45.7777219,13.822335 L40.786064,0.177664975 L43.6016433,0.177664975 L47.26989,10.8730964 L48.9663431,6.2893401 L46.5326879,0.177664975 L49.17951,0.177664975 L50.2098166,2.94035533 L51.2312413,0.177664975 L53.8869453,0.177664975 L51.4532901,6.29822335 L53.1497432,10.8730964 L56.809108,0.177664975 L59.6335692,0.177664975 Z M72.8045524,0.177664975 L72.8045524,13.822335 L70.7972309,13.822335 L63.7893697,4.78807107 L63.7893697,13.822335 L61.1425475,13.822335 L61.1425475,0.177664975 L63.1321051,0.177664975 L70.1577303,9.18527919 L70.1577303,0.177664975 L72.8045524,0.177664975 Z M83.1333105,11.4327411 L83.1333105,13.822335 L75.8412267,13.822335 L75.8412267,0.177664975 L78.4880488,0.177664975 L78.4880488,11.4327411 L83.1333105,11.4327411 Z M90.7619547,14 C89.4947897,14 88.3253442,13.6861284 87.2535831,13.0583756 C86.181822,12.4306229 85.3321237,11.5808006 84.7044625,10.5088832 C84.0768013,9.43696588 83.7629754,8.26734982 83.7629754,7 C83.7629754,5.73265018 84.0768013,4.56303412 84.7044625,3.49111675 C85.3321237,2.41919938 86.181822,1.56937708 87.2535831,0.941624365 C88.3253442,0.31387165 89.4947897,0 90.7619547,0 C92.0350411,0 93.2074472,0.31387165 94.2792083,0.941624365 C95.3509693,1.56937708 96.2006677,2.41919938 96.8283289,3.49111675 C97.4559901,4.56303412 97.769816,5.73265018 97.769816,7 C97.769816,8.26734982 97.4559901,9.43696588 96.8283289,10.5088832 C96.2006677,11.5808006 95.3509693,12.4306229 94.2792083,13.0583756 C93.2074472,13.6861284 92.0350411,14 90.7619547,14 Z M90.7619547,11.4416244 C91.5850198,11.4416244 92.3355374,11.2461948 93.0135299,10.8553299 C93.6915224,10.4644651 94.2259146,9.92999493 94.6167225,9.25190355 C95.0075304,8.57381218 95.2029314,7.82318516 95.2029314,7 C95.2029314,6.17681484 95.0075304,5.42618782 94.6167225,4.74809645 C94.2259146,4.07000507 93.6915224,3.53553495 93.0135299,3.14467005 C92.3355374,2.75380515 91.5850198,2.55837563 90.7619547,2.55837563 C89.9448109,2.55837563 89.1957737,2.75380515 88.5148205,3.14467005 C87.8338673,3.53553495 87.2979948,4.07000507 86.9071869,4.74809645 C86.516379,5.42618782 86.320978,6.17681484 86.320978,7 C86.320978,7.82318516 86.516379,8.57381218 86.9071869,9.25190355 C87.2979948,9.92999493 87.8338673,10.4644651 88.5148205,10.8553299 C89.1957737,11.2461948 89.9448109,11.4416244 90.7619547,11.4416244 Z M107.086031,11.7170051 L101.383817,11.7170051 L100.664379,13.822335 L97.7599803,13.822335 L102.955923,0.177664975 L105.505044,0.177664975 L110.727632,13.822335 L107.80547,13.822335 L107.086031,11.7170051 Z M106.322183,9.4784264 L104.234924,3.39340102 L102.156547,9.4784264 L106.322183,9.4784264 Z M112.36984,0.177664975 L116.677587,0.177664975 C118.075022,0.177664975 119.299239,0.479692411 120.350275,1.08375635 C121.401311,1.68782028 122.208081,2.50951257 122.770607,3.54885787 C123.333134,4.58820317 123.614393,5.73857237 123.614393,7 C123.614393,8.26142763 123.333134,9.41179683 122.770607,10.4511421 C122.208081,11.4904874 121.401311,12.3121797 120.350275,12.9162437 C119.299239,13.5203076 118.075022,13.822335 116.677587,13.822335 L112.36984,13.822335 L112.36984,0.177664975 Z M116.562122,11.4327411 C117.438479,11.4327411 118.200839,11.2402727 118.849225,10.8553299 C119.497611,10.4703872 119.994995,9.94183923 120.341393,9.26967005 C120.687791,8.59750087 120.860987,7.84095175 120.860987,7 C120.860987,6.15904825 120.687791,5.40249913 120.341393,4.73032995 C119.994995,4.05816077 119.497611,3.52961275 118.849225,3.14467005 C118.200839,2.75972735 117.438479,2.56725888 116.562122,2.56725888 L115.00778,2.56725888 L115.00778,11.4327411 L116.562122,11.4327411 Z M141.811608,0.177664975 L141.811608,13.822335 L139.804287,13.822335 L132.796425,4.78807107 L132.796425,13.822335 L130.149603,13.822335 L130.149603,0.177664975 L132.139161,0.177664975 L139.164786,9.18527919 L139.164786,0.177664975 L141.811608,0.177664975 Z M150.923539,14 C149.656373,14 148.486928,13.6861284 147.415167,13.0583756 C146.343406,12.4306229 145.493707,11.5808006 144.866046,10.5088832 C144.238385,9.43696588 143.924559,8.26734982 143.924559,7 C143.924559,5.73265018 144.238385,4.56303412 144.866046,3.49111675 C145.493707,2.41919938 146.343406,1.56937708 147.415167,0.941624365 C148.486928,0.31387165 149.656373,0 150.923539,0 C152.196625,0 153.369031,0.31387165 154.440792,0.941624365 C155.512553,1.56937708 156.362252,2.41919938 156.989913,3.49111675 C157.617574,4.56303412 157.9314,5.73265018 157.9314,7 C157.9314,8.26734982 157.617574,9.43696588 156.989913,10.5088832 C156.362252,11.5808006 155.512553,12.4306229 154.440792,13.0583756 C153.369031,13.6861284 152.196625,14 150.923539,14 Z M150.923539,11.4416244 C151.746604,11.4416244 152.497121,11.2461948 153.175114,10.8553299 C153.853106,10.4644651 154.387498,9.92999493 154.778306,9.25190355 C155.169114,8.57381218 155.364515,7.82318516 155.364515,7 C155.364515,6.17681484 155.169114,5.42618782 154.778306,4.74809645 C154.387498,4.07000507 153.853106,3.53553495 153.175114,3.14467005 C152.497121,2.75380515 151.746604,2.55837563 150.923539,2.55837563 C150.106395,2.55837563 149.357357,2.75380515 148.676404,3.14467005 C147.995451,3.53553495 147.459579,4.07000507 147.068771,4.74809645 C146.677963,5.42618782 146.482562,6.17681484 146.482562,7 C146.482562,7.82318516 146.677963,8.57381218 147.068771,9.25190355 C147.459579,9.92999493 147.995451,10.4644651 148.676404,10.8553299 C149.357357,11.2461948 150.106395,11.4416244 150.923539,11.4416244 Z M177,0.177664975 L171.99946,13.822335 L169.325992,13.822335 L167.576247,9.41624365 L165.817621,13.822335 L163.144153,13.822335 L158.152495,0.177664975 L160.968074,0.177664975 L164.636321,10.8730964 L166.332774,6.2893401 L163.899119,0.177664975 L166.545941,0.177664975 L167.576247,2.94035533 L168.597672,0.177664975 L171.253376,0.177664975 L168.819721,6.29822335 L170.516174,10.8730964 L174.175539,0.177664975 L177,0.177664975 Z" id="download-text"></path>
            </g>
        </g>
    </g>
</svg>