<svg version="1.2" xmlns="http://www.w3.org/2000/svg" viewBox="0 0 1000 169" width="1000" height="169"><style>.a{fill:#17b790}</style><path class="a" d="m42 25h29.8v115.9h-29.8zm58.8 116.1v-116.1h33.4l41.9 79.4v-79.4h28.4v116.1h-33.1l-41.9-79.1v79.1zm132.1 0v-116.1h80.9v22.6h-50.8v22.1h47.7v22.6h-47.7v48.8zm108.7-116.1h29.8v116.1h-29.8zm59.3 115.9v-115.9h32.9l41.9 79.2v-79.2h28.4v115.9h-32.8l-42.2-79.2v79.2zm132.1-115.9h30.1v115.9h-30.1zm45.3 22.6v-22.6h106.7v22.6h-38.3v93.6h-29.8v-93.6zm121.9 47.2v-69.8h30.1v69.8q0 14.6 4.7 20.7 5 5.8 15.5 5.8 10.7 0 15.1-5.8 5-6.1 5-20.7v-69.8h29.8v69.8q0 24.3-12.1 36.7-12.7 11.9-37.8 11.9-25.2 0-37.3-11.9-13-12.4-13-36.7zm129.4 46.4v-116.2h38.1l26.2 62.4 26.2-62.4h37.8v116.2h-28.1v-84.7l-26.2 62.6h-19.1l-26.7-62.6v84.7z"/></svg>