<svg version="1.2" xmlns="http://www.w3.org/2000/svg" viewBox="0 0 360 110" width="360" height="110"><style>.a{fill:#212124}.b{fill:#62c6ae}</style><path class="a" d="m0 0h360v110h-360z"/><path fill-rule="evenodd" class="b" d="m64.4 68l-2.9 10c-0.1 0-0.5 0-0.7 0-0.2 0-0.4 0-0.5-0.1l-0.1-0.2-2.6-12.7c0-0.3 0.7-0.5 1.2-0.5q0.1 0 0.1 0c0.1 0 1.6 6.2 2.2 10.2l2.8-10.1c0.1-0.2 0.4-0.2 0.7-0.2 0.3 0 0.5 0 0.6 0.1 0-0.1 1.6 6.2 2.2 10.2l2.8-10.2q0-0.1 0.3-0.1c0.4 0 1.1 0.4 1.1 0.5l-3.4 13.1c-0.2 0-0.6 0-1 0-0.2 0-0.5 0-0.6-0.1l-0.1-0.2zm10.4 9.9q-0.3 0.2-0.7 0.2c-0.4 0-0.7-0.2-0.7-0.2v-13.2c0 0-0.1-0.3 0.7-0.4 0.6 0.1 0.7 0.2 0.7 0.3q0 0.1 0 0.1v4.7c0.7-0.5 1.4-0.8 2.3-0.8 1.9 0 3.6 1.7 3.6 3.9v5.4q-0.5 0.2-0.8 0.2c-0.4 0-0.6-0.2-0.6-0.2v-5.4c-0.1-1.3-1.4-2.4-2.8-2.4-0.6 0-1.2 0.2-1.7 0.5zm11.1-4.3c-1.2 0-2.5-0.1-2.5-0.1 0 2.4 1.4 3.3 2.8 3.3 0.7 0 1.3-0.2 1.9-0.4q0.1 0 0.1 0c0.3 0 0.5 0.7 0.5 1 0 0.7-2 0.8-2.9 0.8-3 0-3.9-2.5-3.9-5.2 0-2.7 1.2-4.5 3.6-4.5 2.6 0 3.4 1.1 3.4 3.4q0 0.5-0.1 1.2c0 0.4-1.5 0.5-2.9 0.5zm0-1.3c0.9 0 1.6 0 1.6-0.1 0-1.7-0.1-2.5-2-2.5-1.6 0-2 1.4-2 2.6 0 0 1.3 0 2.4 0zm6.5 5.5c0 0.1-0.4 0.2-0.8 0.2-0.3 0-0.7-0.1-0.7-0.2v-8.8c0 0 0-0.2 0.7-0.3q0.1 0 0.2 0c0.5 0 0.6 0.3 0.6 0.3v1.3c0.5-1 1.3-1.8 2.7-1.8 1.7 0 3.6 0.7 3.6 5.3l-0.1 4c0 0.1-0.3 0.2-0.6 0.2-0.4 0-0.9-0.1-0.9-0.2v-4.6c0-1.8-0.5-3.1-2.2-3.1-0.8 0-2 0.4-2.5 1.4zm15.6-6.1l-3.7-6.5c0-0.1 0.6-0.8 1-0.8q0.1 0 0.2 0.1l3.2 5.7 4.4-5.7q0.1-0.1 0.2-0.1c0.4 0 1 0.9 1 1.1l-4.9 6.1v6.3c0 0-0.4 0.1-0.9 0.1-0.2 0-0.4 0-0.5-0.1zm11.7-3.2c2.4 0 4.3 1.9 4.3 4.6 0 3.4-1.9 5.1-4.3 5.1-2.4 0-4.3-1.8-4.3-5.1 0-2.7 2-4.6 4.3-4.6zm-0.1 8.3c1.9 0 2.9-1.3 2.9-3.6 0-2.1-1.3-3.3-2.9-3.3-1.5 0-2.7 1.5-2.7 3.3 0 2.1 1.1 3.6 2.7 3.6zm12.4-7.9c0-0.1 0.3-0.2 0.7-0.2 0.4 0 0.7 0.1 0.7 0.2l0.1 8.9c0 0-0.1 0.2-0.8 0.2q-0.1 0.1-0.2 0.1c-0.5 0-0.5-0.4-0.5-0.4v-1.4c-0.6 1-1.4 1.9-2.8 1.9-1.7 0-3.5-0.6-3.5-5.5v-3.8c0-0.1 0.3-0.2 0.6-0.2 0.4 0 0.9 0.1 0.9 0.2v4.5c0 2.3 0.6 3.2 2.3 3.2 0.7 0 1.9-0.6 2.5-1.6zm8.1-4c0 0 1.8-0.7 3.9-0.7 2.6 0 4.2 1.8 4.2 4.3 0 1.8-0.6 2.7-1.9 3.4 2.1 0.5 2.1 5.2 2.1 6 0 0-0.4 0.2-0.8 0.2-0.3 0-0.5-0.1-0.6-0.2-0.1-1.4 0-5-2.1-5.5-0.4 0-1.1 0-1.9 0-0.6 0-1.1 0-1.6 0v5.6q-0.4 0.2-0.8 0.2c-0.3 0-0.5-0.2-0.5-0.4zm1.3 6c0 0 0.9 0.2 2 0.2 1.5 0 3.4-0.4 3.4-2.4 0-2.1-1.1-3.2-2.8-3.2-1.3 0-2.6 0.4-2.6 0.4zm12.3 2.8c-1.3 0-2.5-0.1-2.5-0.1 0 2.4 1.4 3.3 2.8 3.3 0.7 0 1.3-0.2 1.9-0.4q0 0 0.1 0c0.3 0 0.5 0.7 0.5 1 0 0.7-2 0.8-2.9 0.8-3 0-3.9-2.5-3.9-5.2 0-2.7 1.2-4.5 3.5-4.5 2.7 0 3.4 1.1 3.4 3.3q0 0.6 0 1.3c-0.1 0.4-1.5 0.5-2.9 0.5zm0-1.3c0.8 0 1.5 0 1.5-0.1 0-1.7 0-2.5-1.9-2.5-1.6 0-2.1 1.4-2.1 2.6 0 0 1.4 0 2.5 0zm8.6-2.4c-1.5 0-2.4 1.4-2.4 3.3 0 1.8 0.9 3.4 2.4 3.4 0.9 0 1.4-0.1 2.1-0.7q0 0 0-0.1c0.3 0 0.7 0.6 0.7 1 0 0.9-1.9 1.4-2.7 1.4-2.4 0-4-2.4-4-5.1 0-2.7 1.6-4.6 4-4.6 1 0 1.9 0 2.6 0.7q0 0 0 0.2c0 0.2-0.1 0.8-0.6 1-0.5-0.5-1.1-0.5-2.1-0.5zm8.1 3.7c-1.3 0-2.5-0.1-2.5-0.1 0 2.4 1.3 3.3 2.8 3.3 0.6 0 1.3-0.2 1.9-0.4q0 0 0.1 0c0.2 0 0.5 0.7 0.5 1 0 0.7-2 0.8-2.9 0.8-3 0-3.9-2.5-3.9-5.2 0-2.7 1.2-4.5 3.5-4.5 2.7 0 3.4 1.1 3.4 3.3q0 0.6 0 1.3c-0.1 0.4-1.5 0.5-2.9 0.5zm0-1.3c0.8 0 1.5 0 1.5-0.1 0-1.7 0-2.5-1.9-2.5-1.6 0-2.1 1.4-2.1 2.6 0 0 1.4 0 2.5 0zm5.3-6.3c0-0.3 0.3-0.6 0.6-0.6h0.4c0.3 0 0.5 0.3 0.5 0.6v0.5c0 0.3-0.2 0.6-0.5 0.6h-0.4c-0.3 0-0.6-0.3-0.6-0.6zm1.5 11.6c0 0.2-0.4 0.3-0.8 0.3-0.3 0-0.7-0.1-0.7-0.3v-9c0-0.1 0.5-0.3 0.9-0.3 0.3 0 0.5 0 0.5 0.3zm5.6-1.9l2.4-6.8c0-0.1 0.1-0.4 0.6-0.4 0.8 0 0.9 0.4 0.9 0.5l-3.3 8.7c0 0-0.3 0.1-0.7 0.1-0.4 0-0.7-0.1-0.7-0.1l-2.9-8.7c0 0 0-0.5 0.8-0.5 0.7 0 0.8 0.4 0.8 0.5zm9.2-2.3c-1.3 0-2.5 0-2.5 0 0 2.4 1.4 3.3 2.8 3.3 0.7 0 1.3-0.2 1.9-0.4q0-0.1 0.1-0.1c0.3 0 0.5 0.8 0.5 1.1 0 0.6-2 0.8-2.9 0.8-3 0-3.9-2.5-3.9-5.2 0-2.8 1.2-4.6 3.5-4.6 2.7 0 3.4 1.1 3.4 3.4q0 0.6 0 1.3c0 0.3-1.5 0.4-2.9 0.4zm0-1.2c0.8 0 1.5 0 1.5-0.1 0-1.7 0-2.5-1.9-2.5-1.6 0-2.1 1.3-2.1 2.5 0 0 1.4 0.1 2.5 0.1zm16.9 1.6c0 2.7-1.7 4.3-4.2 4.3-2.2 0-3.4-0.7-3.4-0.7v-12.9c0 0 0.5-0.5 3.1-0.5 2.6 0 3.3 1.9 3.3 3.1 0 0.9-0.4 2.6-1.4 3 0 0 2.6 0.9 2.6 3.7zm-6.2 2.6c0 0 0.8 0.4 2.1 0.4 1.4 0 2.7-0.8 2.7-3 0-2.6-2.2-2.9-3.6-2.9-0.5 0-0.9 0-1.2 0zm1.6-11.3c-0.9 0-1.6 0.2-1.6 0.2v4.4c0 0 0.2 0 0.5 0 1 0 3.3-0.3 3.3-2.5 0-1.6-1.2-2.1-2.2-2.1zm6.6 0.8c0-0.3 0.2-0.6 0.6-0.6h0.4c0.3 0 0.5 0.3 0.5 0.6v0.4c0 0.4-0.2 0.6-0.5 0.6h-0.4c-0.4 0-0.6-0.2-0.6-0.6zm1.4 11.7c0 0.2-0.3 0.3-0.7 0.3-0.4 0-0.7-0.1-0.7-0.3v-9.1c0-0.1 0.5-0.2 0.9-0.2 0.3 0 0.5 0 0.5 0.2zm4.6-3c0 1.6 0.1 2.2 1.9 2.2 0.1 0 0.1 0.2 0.1 0.4 0 0.4-0.1 0.8-0.2 0.8-0.4 0-0.4 0-0.4 0-0.6 0-1.6-0.1-2-0.5 0 0-0.9-0.6-0.9-2.9 0-1.2 0-1.5 0-4.3-0.1 0-0.2 0-0.4 0-1 0-0.9 0-0.9-0.8 0-0.4 0.1-0.8 0.2-0.8 0 0 0.4 0.1 0.8 0.1 0.1 0 0.3 0 0.3-0.1v-2.1c0 0 0-0.2 0.8-0.3q0 0 0.1 0c0.6 0 0.5 0.3 0.5 0.3v2.1c0.1 0 0.4 0 0.7 0 1.7 0 1.8-0.2 1.8 0.8 0 0.4-0.1 0.8-0.2 0.8 0 0-0.8-0.1-1.5-0.1-0.3 0-0.6 0-0.8 0.1zm7.7-4.7c-1.6 0-2.5 1.4-2.5 3.3 0 1.8 0.9 3.4 2.5 3.4 0.8 0 1.3-0.1 2-0.7q0.1 0 0.1-0.1c0.2 0 0.6 0.6 0.6 1 0 0.9-1.9 1.4-2.7 1.4-2.4 0-4-2.4-4-5.1 0-2.7 1.6-4.6 4-4.6 1 0 1.9 0.1 2.6 0.7q0 0 0 0.2c0 0.2 0 0.8-0.6 1-0.4-0.5-1.1-0.5-2-0.5zm8.5-1.4c2.4 0 4.3 1.9 4.3 4.6 0 3.3-1.9 5.1-4.3 5.1-2.4 0-4.3-1.8-4.3-5.1 0-2.7 1.9-4.6 4.3-4.6zm-0.1 8.3c1.9 0 2.9-1.3 2.9-3.7 0-2.1-1.3-3.2-2.9-3.2-1.5 0-2.7 1.4-2.7 3.2 0 2.1 1 3.7 2.7 3.7zm6.4-10.8c0-0.3 0.2-0.6 0.6-0.6h0.4c0.3 0 0.5 0.3 0.5 0.6v0.5c0 0.3-0.2 0.6-0.5 0.6h-0.4c-0.4 0-0.6-0.3-0.6-0.6zm1.4 11.6c0 0.2-0.3 0.3-0.7 0.3-0.4 0-0.7-0.1-0.7-0.3v-9c0-0.1 0.5-0.3 0.9-0.3 0.3 0 0.5 0 0.5 0.3zm3.8 0.1c0 0.1-0.4 0.2-0.8 0.2-0.3 0-0.7-0.1-0.7-0.2v-8.8c0 0 0-0.2 0.7-0.3q0.1 0 0.2 0c0.5 0 0.6 0.3 0.6 0.3v1.3c0.5-1 1.3-1.8 2.7-1.8 1.7 0 3.6 0.7 3.6 5.3l-0.1 4c0 0.1-0.3 0.2-0.6 0.2-0.4 0-0.9-0.1-0.9-0.2v-4.6c0-1.8-0.5-3.1-2.2-3.1-0.8 0-2 0.4-2.5 1.4zm22.3-0.3c0 0.4-0.5 0.6-0.9 0.6-0.3 0-0.5-0.1-0.6-0.2l-7-10.6v10.5c0 0.1-0.4 0.3-0.8 0.3-0.3 0-0.6-0.1-0.6-0.4v-12.8c0-0.3 0.4-0.5 0.8-0.5 0.3 0 0.6 0.1 0.7 0.3l6.9 10.5v-10.5c0-0.1 0.5-0.3 0.9-0.3 0.3 0 0.5 0.1 0.5 0.3zm6.9-13c0.1-0.1 0.5-0.2 0.8-0.2 0.3 0 0.6 0 0.6 0.2l4.2 13.1q0 0 0 0.1c0 0.1-0.1 0.3-0.6 0.3-0.8 0-0.9-0.4-0.9-0.4l-1.1-3.9h-5l-1.5 3.9c-0.1 0.3-0.4 0.4-0.7 0.4-0.4 0-0.8-0.3-0.8-0.5zm2.4 7.7l-1.9-5.2-2 5.3h3.9zm14.9 5.4c0 0.3-0.4 0.5-0.8 0.5-0.3 0-0.6-0.1-0.6-0.2l-7-10.6v10.5c0 0.2-0.4 0.3-0.8 0.3-0.3 0-0.7-0.1-0.7-0.4v-12.8c0-0.3 0.4-0.5 0.8-0.5 0.3 0 0.6 0.1 0.8 0.3l6.9 10.5v-10.5c0-0.1 0.4-0.3 0.8-0.3 0.3 0 0.6 0.1 0.6 0.3zm7-13.3c3.1 0 5 3.2 5 7 0 3.8-2.2 7-5 7-2.8 0-5.1-3.2-5.1-7 0-3.8 2.3-7 5.1-7zm-3.7 7.2c0 2.8 1.8 5.4 3.8 5.4 2 0 3.5-2.8 3.5-5.9 0-2.7-1.5-5.2-3.5-5.2-1.9 0-3.5 2.4-3.8 5.2q0 0.2 0 0.5z"/><path fill-rule="evenodd" class="b" d="m65.5 54.6q-2.1 0-4-0.5-1.8-0.5-3.4-1.6-1.6-1-2.9-2.4-1.3-1.5-2.2-3.3-1-1.8-1.5-4-0.5-2.1-0.5-4.6 0-3.5 1.2-6.4 1.2-3 3.4-5.1 2.1-2.1 5.1-3.2 3-1.2 6.6-1.2 1.9 0 4 0.4 2.2 0.3 4.3 1.1l-1.2 7q-1.9-0.8-3.5-1.1-1.6-0.4-3.1-0.4-1.9 0-3.5 0.7-1.5 0.6-2.6 1.8-1.1 1.2-1.7 2.8-0.6 1.7-0.6 3.7 0 2.2 0.4 3.9 0.4 1.8 1.2 3 0.8 1.2 2.1 1.8 1.2 0.7 3 0.7h2.3v-6.5l-4.1 0.7v-5.5h11.3v14.9q-1.4 0.9-2.7 1.6-1.3 0.6-2.5 1-1.2 0.4-2.5 0.6-1.2 0.1-2.4 0.1zm34.2-7.8v6.3q-1.8 0.6-3.8 1.1-2 0.4-4.2 0.4-2.4 0-4.6-0.7-2.2-0.8-3.8-2.3-1.7-1.6-2.7-4-1-2.5-1-5.8 0-2 0.5-3.6 0.6-1.6 1.4-3 0.9-1.3 2-2.3 1.2-1.1 2.5-1.8 1.4-0.7 2.8-1 1.4-0.4 2.8-0.4 2.1 0 3.8 0.6 1.6 0.5 2.7 1.5 1.1 0.9 1.6 2.2 0.6 1.2 0.6 2.6 0 1.7-0.5 2.9-0.5 1.3-1.3 2.1-0.9 0.8-2 1.3-1 0.4-2.2 0.7-1.3 0.2-2.5 0.3-1.3 0.1-2.4 0.1-0.4 0-0.8 0-0.3 0-0.7 0 0.2 1.2 0.6 2.1 0.4 0.8 1.1 1.4 0.7 0.5 1.5 0.7 0.9 0.3 1.9 0.3 0.7 0 1.6-0.2 0.8-0.1 1.7-0.3 0.9-0.3 1.7-0.5 0.9-0.4 1.7-0.7zm-11.9-6.2q0.4 0 1.1-0.1 0.7 0 1.5-0.1 0.8-0.2 1.5-0.4 0.8-0.2 1.5-0.5 0.6-0.3 1-0.7 0.4-0.5 0.4-1.1 0-1.2-0.8-1.8-0.7-0.7-2.1-0.7-0.6 0-1.3 0.2-0.7 0.2-1.3 0.8-0.6 0.6-1.1 1.7-0.4 1-0.4 2.7zm27.4 14q-1.7 0-3.3-0.4-1.6-0.6-2.8-1.7-1.2-1.2-1.9-3.1-0.7-2-0.7-4.9v-8.8h-3.7v-1.4l8.8-11.2h3v7.2h5.9q-0.2 1.3-0.4 2.7-0.2 1.3-0.2 2.7h-5.3v8.7q0 0.8 0 1.6 0.2 0.7 0.5 1.3 0.3 0.5 0.9 0.9 0.6 0.3 1.6 0.3 0.6 0 1.4-0.1 0.7-0.2 1.7-0.6l0.4 5.7q-1.1 0.5-2.7 0.8-1.5 0.3-3.2 0.3zm23.2-0.6v-31.1h8.1l10 15.6v-15.6h6.4v31.1h-8.3l-9.9-16.5v16.5zm40.8 0.6q-2.2 0-3.9-0.4-1.7-0.5-3-1.4-1.3-0.8-2.2-2-0.9-1.2-1.5-2.6-0.5-1.4-0.8-2.9-0.2-1.5-0.2-3.1 0-1.6 0.2-3.1 0.3-1.5 0.8-2.9 0.6-1.4 1.5-2.6 0.9-1.2 2.2-2 1.3-0.9 3-1.4 1.7-0.5 3.9-0.5 2.2 0 3.9 0.5 1.7 0.5 3 1.4 1.3 0.8 2.2 2 0.9 1.2 1.5 2.6 0.5 1.4 0.8 2.9 0.2 1.5 0.2 3.1 0 1.6-0.2 3.1-0.3 1.5-0.8 2.9-0.6 1.4-1.5 2.6-0.9 1.2-2.2 2-1.3 0.9-3 1.4-1.7 0.4-3.9 0.4zm-3.6-12.4q0 1.2 0.2 2.3 0.2 1.1 0.6 2 0.4 0.9 1.1 1.5 0.7 0.5 1.7 0.5 1 0 1.7-0.5 0.7-0.6 1.1-1.5 0.4-0.9 0.6-2 0.2-1.1 0.2-2.3 0-1.2-0.2-2.3-0.2-1.2-0.6-2-0.4-1-1.1-1.5-0.7-0.5-1.7-0.5-1 0-1.7 0.5-0.7 0.5-1.1 1.5-0.4 0.8-0.6 2-0.2 1.1-0.2 2.3zm29.6 12.4q-1.7 0-3.3-0.4-1.6-0.6-2.8-1.7-1.2-1.2-1.9-3.1-0.7-2-0.7-4.9v-8.8h-3.7v-1.4l8.8-11.2h2.9v7.2h6q-0.2 1.3-0.4 2.7-0.2 1.3-0.2 2.7h-5.4v8.7q0 0.8 0.1 1.6 0.2 0.7 0.5 1.3 0.3 0.5 0.9 0.9 0.6 0.3 1.6 0.3 0.6 0 1.4-0.1 0.7-0.2 1.7-0.6l0.4 5.7q-1.1 0.5-2.7 0.8-1.5 0.3-3.2 0.3zm9.8-0.6v-23.7h8v23.7zm4.1-28.6q-1.1 0-2-0.3-1-0.2-1.7-0.7-0.6-0.4-1-1.1-0.4-0.7-0.4-1.4 0-0.9 0.4-1.6 0.4-0.7 1-1.1 0.7-0.4 1.7-0.7 0.9-0.2 2-0.2 1.1 0 2 0.2 0.9 0.3 1.6 0.7 0.7 0.4 1.1 1.1 0.4 0.7 0.4 1.6 0 0.7-0.4 1.4-0.4 0.7-1.1 1.1-0.7 0.5-1.6 0.7-1 0.3-2 0.3zm19 10.4v18.2h-8v-18.2h-3.2v-5.5h3.1q0-2.7 0.7-4.7 0.6-2 1.7-3.4 1.1-1.3 2.7-2 1.7-0.7 3.7-0.7 1.6 0 3 0.5 1.4 0.4 2.6 1l-0.6 5.6q-1.1-0.3-1.8-0.5-0.7-0.2-1.4-0.2-0.9 0-1.4 0.3-0.4 0.4-0.7 1-0.2 0.7-0.3 1.5-0.1 0.8-0.1 1.6h5.7q-0.3 1.4-0.5 2.8-0.1 1.3-0.1 2.7zm8.9 18.2v-23.7h8.1v23.7zm4-28.6q-1 0-2-0.3-0.9-0.2-1.6-0.7-0.6-0.4-1.1-1.1-0.4-0.7-0.4-1.4 0-0.9 0.4-1.6 0.4-0.7 1.1-1.1 0.7-0.4 1.6-0.7 1-0.2 2.1-0.2 1 0 2 0.2 0.9 0.3 1.6 0.7 0.7 0.4 1.1 1.1 0.4 0.7 0.4 1.6 0 0.7-0.4 1.4-0.4 0.7-1.1 1.1-0.7 0.5-1.7 0.7-0.9 0.3-2 0.3zm28.7 21.4v6.3q-1.8 0.6-3.8 1.1-2 0.4-4.2 0.4-2.4 0-4.6-0.7-2.2-0.8-3.8-2.3-1.7-1.6-2.7-4-1-2.5-1-5.8 0-2 0.6-3.6 0.5-1.6 1.3-3 0.9-1.3 2-2.3 1.2-1.1 2.5-1.8 1.4-0.7 2.8-1 1.4-0.4 2.8-0.4 2.1 0 3.8 0.6 1.6 0.5 2.7 1.5 1.1 0.9 1.6 2.2 0.6 1.2 0.6 2.6 0 1.7-0.5 2.9-0.5 1.3-1.3 2.1-0.8 0.8-1.9 1.3-1.1 0.4-2.3 0.7-1.3 0.2-2.5 0.3-1.3 0.1-2.4 0.1-0.4 0-0.8 0-0.3 0-0.7 0 0.2 1.2 0.6 2.1 0.4 0.8 1.1 1.4 0.7 0.5 1.5 0.7 0.9 0.3 1.9 0.3 0.7 0 1.6-0.2 0.8-0.1 1.7-0.3 0.9-0.3 1.7-0.5 0.9-0.4 1.7-0.7zm-11.9-6.2q0.4 0 1.1-0.1 0.7 0 1.5-0.1 0.8-0.2 1.5-0.4 0.8-0.2 1.5-0.5 0.6-0.3 1-0.7 0.4-0.5 0.4-1.1 0-1.2-0.8-1.8-0.7-0.7-2.1-0.7-0.6 0-1.3 0.2-0.7 0.2-1.3 0.8-0.6 0.6-1.1 1.7-0.4 1-0.4 2.7zm25.2 14q-1.9 0-3.5-0.7-1.7-0.7-2.9-2.2-1.2-1.6-2-3.9-0.7-2.4-0.7-5.6 0-3.4 0.7-5.8 0.8-2.4 2-3.9 1.3-1.5 2.8-2.1 1.6-0.7 3.3-0.7 1.1 0 2.1 0.3 1.1 0.3 2 0.8 1 0.5 1.7 1.2 0.8 0.7 1.2 1.5v-13.2h8v33.7h-8v-3.9q-0.5 1.1-1.3 1.9-0.7 0.9-1.6 1.5-0.8 0.5-1.8 0.8-1 0.3-2 0.3zm-1.1-12.4q0 1.8 0.4 3 0.3 1.2 0.9 2 0.5 0.7 1.2 1 0.7 0.3 1.4 0.3 0.8 0 1.5-0.3 0.6-0.3 1.2-1 0.5-0.8 0.8-2 0.4-1.2 0.4-3 0-1.8-0.4-3-0.3-1.2-0.8-2-0.6-0.7-1.2-1-0.7-0.4-1.4-0.4-0.8 0-1.5 0.4-0.7 0.3-1.2 1-0.6 0.8-0.9 2-0.4 1.2-0.4 3z"/></svg>