<svg version="1.2" xmlns="http://www.w3.org/2000/svg" viewBox="0 0 360 110" width="360" height="110"><style>.a{fill:#212124}.b{fill:#62c6ae}</style><path class="a" d="m0 0h360v110h-360z"/><path fill-rule="evenodd" class="b" d="m84.1 76.7q-1.5 0-2.6-0.6-1.2-0.6-1.8-1.6-0.7-1.1-0.7-2.4v-9.1h1.5v8.9q0 0.9 0.5 1.7 0.4 0.7 1.3 1.1 0.8 0.5 1.8 0.5 1 0 1.8-0.5 0.9-0.4 1.3-1.1 0.5-0.8 0.5-1.7v-8.9h1.5v9.1q0 1.3-0.7 2.4-0.6 1-1.8 1.6-1.1 0.6-2.6 0.6zm10.5 0q-1 0-1.8-0.3-0.7-0.3-1.4-0.8l0.8-1.2q0.5 0.4 1.1 0.7 0.7 0.2 1.3 0.2 0.8 0 1.2-0.3 0.5-0.3 0.5-0.9 0-0.4-0.3-0.6-0.2-0.3-0.5-0.4-0.4-0.1-1-0.3-0.9-0.3-1.5-0.5-0.5-0.2-0.9-0.7-0.3-0.4-0.3-1.2 0-0.8 0.4-1.3 0.4-0.6 1.1-0.9 0.7-0.3 1.5-0.3 0.7 0 1.4 0.2 0.7 0.3 1.3 0.6l-0.8 1.2q-1-0.7-2-0.7-0.7 0-1.2 0.3-0.4 0.3-0.4 0.7 0 0.4 0.3 0.6 0.2 0.3 0.6 0.4 0.3 0.1 1 0.3 0.2 0 0.2 0.1 0.8 0.2 1.3 0.4 0.5 0.3 0.9 0.7 0.3 0.5 0.3 1.3 0 0.8-0.4 1.4-0.4 0.6-1.1 1-0.7 0.3-1.6 0.3zm13.3-4.2h-7.4q0 0.8 0.4 1.4 0.5 0.7 1.1 1.1 0.7 0.3 1.5 0.3 0.8 0 1.5-0.3 0.7-0.4 1.1-1.1l1.2 0.5q-0.5 1.1-1.5 1.7-1.1 0.6-2.3 0.6-1.2 0-2.2-0.6-1-0.6-1.6-1.6-0.6-1-0.6-2.2 0-1.2 0.6-2.2 0.6-1 1.6-1.6 1-0.6 2.2-0.6 1.2 0 2.2 0.6 1 0.5 1.6 1.5 0.6 1 0.6 2.2zm-4.4-3.2q-0.7 0-1.2 0.2-0.6 0.3-1 0.7-0.5 0.5-0.7 1.1h5.7q-0.2-0.6-0.6-1.1-0.4-0.4-1-0.7-0.5-0.2-1.2-0.2zm23.5 7.4l-1.7-1.8q-1 0.9-2.2 1.3-1.2 0.5-2.5 0.5-1.9 0-3.4-0.9-1.6-1-2.6-2.5-0.9-1.6-0.9-3.5 0-1.9 0.9-3.5 1-1.6 2.6-2.5 1.5-0.9 3.4-0.9 1.9 0 3.5 0.9 1.6 0.9 2.5 2.5 1 1.6 1 3.5 0 1.1-0.4 2.2-0.3 1-1 1.9l1.9 1.8zm-6.4-1.6q1 0 1.9-0.3 0.9-0.3 1.6-1l-1.5-1.4 1-1 1.4 1.4q0.5-0.7 0.7-1.4 0.3-0.8 0.3-1.6 0-1.5-0.8-2.7-0.7-1.3-1.9-2-1.3-0.7-2.7-0.7-1.5 0-2.7 0.7-1.3 0.7-2 2-0.7 1.2-0.7 2.7 0 1.4 0.7 2.7 0.7 1.2 2 1.9 1.2 0.7 2.7 0.7zm14.9-4.6h-3.3v6h-1.5v-13.5h5.6q1 0 1.9 0.5 0.8 0.6 1.4 1.4 0.5 0.9 0.5 1.9 0 0.9-0.4 1.6-0.4 0.8-1 1.3-0.7 0.5-1.5 0.7l3.2 6.1h-1.7zm-3.3-1.5h4q0.6 0 1.2-0.2 0.5-0.3 0.8-0.8 0.3-0.5 0.3-1.2 0-0.7-0.3-1.2-0.3-0.6-0.8-0.8-0.6-0.3-1.2-0.3h-4zm18.5 7.5q-1.3 0-2.3-0.5-1-0.6-1.6-1.6-0.6-1-0.6-2.2 0-1.2 0.6-2.2 0.6-1 1.6-1.6 1-0.6 2.3-0.6 1.2 0 2.2 0.6 1 0.6 1.6 1.6 0.6 1 0.6 2.2 0 1.2-0.6 2.2-0.6 1-1.6 1.6-1 0.5-2.2 0.5zm0-1.4q0.8 0 1.4-0.4 0.7-0.4 1.1-1.1 0.4-0.6 0.4-1.4 0-0.8-0.4-1.5-0.4-0.7-1.1-1.1-0.6-0.4-1.4-0.4-0.9 0-1.5 0.4-0.7 0.4-1.1 1.1-0.4 0.7-0.4 1.5 0 0.8 0.4 1.4 0.4 0.7 1.1 1.1 0.6 0.4 1.5 0.4zm10.2-7.3q0.3 0 0.7 0.1 0.3 0.1 0.5 0.2l-0.5 1.3q-0.4-0.2-0.7-0.2-0.6 0-1.1 0.4-0.5 0.3-0.8 0.9-0.3 0.7-0.3 1.4v4.5h-1.5v-8.5h1.5v1.4q0.4-0.7 0.9-1.1 0.6-0.4 1.3-0.4zm10.7 8.8q-1.4 0-2.6-0.6-1.2-0.6-2-1.6l1.1-1q1.3 1.8 3.4 1.8 0.8 0 1.4-0.3 0.6-0.3 0.9-0.8 0.4-0.5 0.4-1.2 0-0.7-0.4-1.2-0.4-0.5-1-0.8-0.6-0.4-1.7-0.8-1.1-0.5-1.8-0.9-0.7-0.4-1.2-1.1-0.5-0.7-0.5-1.8 0-1.1 0.5-1.9 0.5-0.8 1.4-1.2 0.9-0.5 1.9-0.5 1.2 0 2.2 0.5 1 0.5 1.7 1.4l-0.9 0.9q-0.8-0.8-1.5-1.1-0.6-0.3-1.4-0.3-0.7 0-1.2 0.2-0.5 0.3-0.8 0.8-0.3 0.4-0.3 1.1 0 0.6 0.3 1.1 0.4 0.5 0.9 0.8 0.6 0.3 1.4 0.7 0.2 0 0.3 0.1 1.2 0.4 1.9 0.8 0.7 0.5 1.2 1.2 0.5 0.8 0.5 1.9 0 1.2-0.5 2-0.6 0.9-1.5 1.3-1 0.5-2.1 0.5zm9.9-8.8q0.8 0 1.5 0.4 0.7 0.4 1.1 1.1 0.4 0.7 0.4 1.5v5.6h-1.4v-5.5q0-0.5-0.3-0.9-0.2-0.4-0.6-0.6-0.5-0.2-0.9-0.2-0.5 0-1 0.2-0.4 0.2-0.6 0.6-0.3 0.4-0.3 0.9v5.5h-1.5v-13.5h1.5v5.7q0.4-0.4 1-0.6 0.5-0.2 1.1-0.2zm13.8 0.1v8.5h-1.5v-1.2q-0.5 0.6-1.3 1-0.8 0.3-1.8 0.3-1.1 0-2.1-0.5-1-0.6-1.6-1.6-0.5-1-0.5-2.2 0-1.2 0.5-2.2 0.6-1 1.6-1.6 1-0.6 2.1-0.6 1 0 1.8 0.3 0.8 0.4 1.3 1v-1.2zm-4.4 7.2q0.8 0 1.5-0.4 0.7-0.4 1-1.1 0.4-0.6 0.4-1.4 0-0.8-0.4-1.5-0.3-0.7-1-1.1-0.7-0.4-1.5-0.4-0.8 0-1.5 0.4-0.6 0.4-1 1.1-0.4 0.7-0.4 1.5 0 0.8 0.4 1.4 0.4 0.7 1 1.1 0.7 0.4 1.5 0.4zm11.1-7.3q0.3 0 0.7 0.1 0.3 0.1 0.5 0.2l-0.5 1.3q-0.4-0.2-0.7-0.2-0.6 0-1.1 0.4-0.5 0.3-0.8 0.9-0.3 0.7-0.3 1.4v4.5h-1.5v-8.5h1.5v1.4q0.4-0.7 0.9-1.1 0.6-0.4 1.3-0.4zm10.4 4.6h-7.4q0 0.7 0.4 1.4 0.5 0.7 1.1 1 0.7 0.4 1.5 0.4 0.8 0 1.5-0.4 0.6-0.3 1.1-1l1.2 0.5q-0.5 1-1.5 1.6-1.1 0.6-2.3 0.6-1.2 0-2.2-0.5-1-0.6-1.6-1.6-0.6-1-0.6-2.2 0-1.2 0.6-2.2 0.6-1 1.6-1.6 1-0.6 2.2-0.6 1.2 0 2.2 0.5 1 0.6 1.6 1.6 0.6 1 0.6 2.2zm-4.4-3.3q-0.7 0-1.2 0.3-0.6 0.2-1.1 0.7-0.4 0.5-0.6 1.1h5.7q-0.2-0.6-0.6-1.1-0.4-0.4-1-0.7-0.5-0.3-1.2-0.3zm18.5 5.1h-6.3l-0.9 2.2h-1.7l5.7-13.8 5.8 13.8h-1.7zm-0.6-1.4l-2.6-6.7-2.6 6.7zm12.8-9.9v13.5h-1.5v-1.3q-0.5 0.7-1.3 1.1-0.8 0.3-1.8 0.3-1.1 0-2.1-0.6-1-0.6-1.5-1.6-0.6-1-0.6-2.2 0-1.2 0.6-2.2 0.5-1 1.5-1.6 1-0.5 2.1-0.5 1 0 1.8 0.3 0.8 0.4 1.3 1v-6.2zm-4.4 12.2q0.8 0 1.5-0.4 0.7-0.4 1.1-1.1 0.4-0.7 0.4-1.5 0-0.8-0.4-1.4-0.4-0.7-1.1-1.1-0.7-0.4-1.5-0.4-0.8 0-1.5 0.4-0.6 0.4-1 1.1-0.4 0.6-0.4 1.4 0 0.8 0.4 1.5 0.4 0.7 1 1.1 0.7 0.4 1.5 0.4zm15.4-12.2v13.5h-1.4v-1.3q-0.6 0.7-1.4 1.1-0.8 0.3-1.8 0.3-1.1 0-2.1-0.6-0.9-0.6-1.5-1.6-0.6-1-0.6-2.2 0-1.2 0.6-2.2 0.6-1 1.5-1.6 1-0.5 2.1-0.5 1 0 1.8 0.3 0.8 0.4 1.4 1v-6.2zm-4.5 12.2q0.8 0 1.5-0.4 0.7-0.4 1.1-1.1 0.4-0.7 0.4-1.5 0-0.8-0.4-1.4-0.4-0.7-1.1-1.1-0.6-0.4-1.5-0.4-0.8 0-1.4 0.4-0.7 0.4-1.1 1.1-0.4 0.6-0.4 1.4 0 0.8 0.4 1.5 0.4 0.7 1.1 1.1 0.6 0.4 1.4 0.4zm11.1-7.3q0.4 0 0.7 0 0.3 0.1 0.6 0.3l-0.5 1.2q-0.4-0.1-0.7-0.1-0.7 0-1.2 0.3-0.5 0.4-0.8 1-0.2 0.6-0.2 1.4v4.5h-1.5v-8.5h1.5v1.3q0.3-0.7 0.9-1.1 0.5-0.3 1.2-0.3zm10.4 4.5h-7.4q0.1 0.8 0.5 1.5 0.4 0.6 1.1 1 0.7 0.4 1.5 0.4 0.7 0 1.4-0.4 0.7-0.4 1.1-1l1.3 0.5q-0.6 1-1.6 1.6-1 0.6-2.2 0.6-1.3 0-2.3-0.6-1-0.6-1.6-1.6-0.6-1-0.6-2.2 0-1.2 0.6-2.2 0.6-1 1.6-1.6 1-0.5 2.3-0.5 1.2 0 2.2 0.5 1 0.6 1.6 1.6 0.5 0.9 0.5 2.1zm-4.3-3.2q-0.7 0-1.3 0.3-0.6 0.2-1 0.7-0.4 0.4-0.6 1.1h5.7q-0.2-0.7-0.6-1.1-0.4-0.5-1-0.7-0.6-0.3-1.2-0.3zm8.7 7.4q-1 0-1.8-0.3-0.8-0.3-1.4-0.8l0.8-1.2q0.5 0.4 1.1 0.7 0.6 0.3 1.3 0.3 0.8 0 1.2-0.3 0.5-0.4 0.5-0.9 0-0.4-0.3-0.7-0.2-0.2-0.6-0.4-0.3-0.1-1-0.3-0.9-0.2-1.4-0.5-0.5-0.2-0.9-0.6-0.4-0.5-0.4-1.3 0-0.7 0.4-1.3 0.4-0.6 1.1-0.8 0.7-0.3 1.6-0.3 0.7 0 1.4 0.2 0.7 0.2 1.3 0.6l-0.9 1.1q-0.9-0.6-2-0.6-0.7 0-1.1 0.2-0.4 0.3-0.4 0.8 0 0.4 0.3 0.6 0.2 0.2 0.6 0.3 0.3 0.2 1 0.3 0.2 0.1 0.2 0.1 0.8 0.2 1.3 0.5 0.5 0.2 0.8 0.7 0.4 0.5 0.4 1.2 0 0.9-0.4 1.5-0.4 0.6-1.1 0.9-0.7 0.3-1.6 0.3zm7.6 0q-1 0-1.7-0.3-0.8-0.3-1.5-0.8l0.8-1.2q0.5 0.4 1.1 0.7 0.7 0.3 1.4 0.3 0.7 0 1.2-0.3 0.4-0.4 0.4-0.9 0-0.4-0.2-0.7-0.3-0.2-0.6-0.4-0.3-0.1-1-0.3-0.9-0.2-1.4-0.5-0.6-0.2-0.9-0.6-0.4-0.5-0.4-1.3 0-0.7 0.4-1.3 0.4-0.6 1.1-0.8 0.7-0.3 1.5-0.3 0.8 0 1.5 0.2 0.7 0.2 1.2 0.6l-0.8 1.1q-1-0.6-2-0.6-0.7 0-1.1 0.2-0.4 0.3-0.4 0.8 0 0.4 0.2 0.6 0.2 0.2 0.6 0.3 0.4 0.2 1 0.3 0.2 0.1 0.3 0.1 0.7 0.2 1.2 0.5 0.5 0.2 0.9 0.7 0.3 0.5 0.3 1.2 0 0.9-0.4 1.5-0.3 0.6-1.1 0.9-0.7 0.3-1.6 0.3z"/><path fill-rule="evenodd" class="b" d="m54 50.4v-20.4h9.2q2.1 0 3.8 0.6 1.7 0.6 2.8 1.5 1.1 0.9 1.6 2.1 0.6 1.2 0.6 2.4 0 0.9-0.2 1.8-0.2 0.9-0.7 1.8-0.4 0.8-1.3 1.4-0.8 0.7-2.1 1.1 0.2 0.6 0.7 1.5 0.4 0.9 1 1.9 0.6 1 1.3 2.2 0.6 1.1 1.3 2.1h-7.4q-0.6-1.4-1.3-3.1-0.6-1.8-1-3.8h-1.8v6.9zm6.4-10.1h1.1q1.1 0 1.9-0.3 0.7-0.3 1.2-0.8 0.5-0.4 0.7-1 0.2-0.6 0.2-1.2 0-1.1-0.3-1.8-0.3-0.7-0.9-1.2-0.5-0.4-1.3-0.5-0.7-0.2-1.5-0.2h-1.1zm28.7 5.5v4.1q-1.3 0.4-2.9 0.7-1.5 0.3-3.2 0.3-1.9 0-3.6-0.5-1.7-0.5-3-1.5-1.2-1.1-2-2.6-0.8-1.6-0.8-3.8 0-1.3 0.4-2.4 0.4-1 1.1-1.9 0.7-0.9 1.6-1.6 0.9-0.7 1.9-1.1 1-0.5 2.1-0.7 1.1-0.3 2.2-0.3 1.6 0 2.9 0.4 1.3 0.4 2.1 1 0.8 0.6 1.3 1.4 0.4 0.9 0.4 1.8 0 1.1-0.4 1.9-0.4 0.8-1 1.3-0.6 0.6-1.5 0.9-0.8 0.3-1.8 0.5-0.9 0.1-1.9 0.2-0.9 0-1.8 0-0.3 0-0.6 0-0.3 0-0.6 0 0.2 0.8 0.5 1.4 0.3 0.5 0.8 0.9 0.6 0.4 1.2 0.5 0.7 0.2 1.5 0.2 0.5 0 1.2-0.1 0.6-0.1 1.3-0.3 0.7-0.1 1.4-0.3 0.6-0.2 1.2-0.4zm-9.2-4.1q0.4 0 0.9-0.1 0.5 0 1.1-0.1 0.6 0 1.3-0.2 0.6-0.1 1-0.3 0.5-0.2 0.8-0.5 0.3-0.3 0.3-0.7 0-0.8-0.5-1.2-0.6-0.4-1.7-0.4-0.4 0-1 0.1-0.5 0.1-1 0.5-0.5 0.4-0.8 1.1-0.3 0.7-0.4 1.8zm18.7 1q0 1.1 0.2 1.9 0.3 0.7 0.7 1.3 0.5 0.5 1.1 0.7 0.7 0.3 1.5 0.3 1 0 2-0.3 0.9-0.3 1.8-0.8l1 3.8q-0.7 0.3-1.4 0.6-0.7 0.2-1.5 0.4-0.8 0.1-1.6 0.2-0.8 0.1-1.6 0.1-1.7 0-3.2-0.5-1.6-0.5-2.8-1.5-1.1-1-1.8-2.5-0.7-1.6-0.7-3.7 0-2.1 0.7-3.6 0.7-1.6 1.8-2.6 1.2-1 2.8-1.5 1.5-0.5 3.2-0.5 0.8 0 1.6 0.1 0.8 0.1 1.6 0.3 0.8 0.1 1.5 0.4 0.7 0.2 1.4 0.6l-1 3.7q-0.9-0.5-1.8-0.7-1-0.3-2-0.3-0.8 0-1.5 0.2-0.6 0.3-1.1 0.8-0.4 0.5-0.7 1.3-0.2 0.8-0.2 1.8zm26.7 3.1v4.1q-1.3 0.4-2.9 0.7-1.6 0.3-3.3 0.3-1.8 0-3.5-0.5-1.7-0.5-3-1.5-1.3-1.1-2-2.6-0.8-1.6-0.8-3.8 0-1.3 0.4-2.4 0.4-1 1.1-1.9 0.6-0.9 1.5-1.6 0.9-0.7 2-1.1 1-0.5 2.1-0.7 1.1-0.3 2.1-0.3 1.7 0 3 0.4 1.2 0.4 2.1 1 0.8 0.6 1.3 1.4 0.4 0.9 0.4 1.8 0 1.1-0.4 1.9-0.4 0.8-1 1.3-0.7 0.6-1.5 0.9-0.8 0.3-1.8 0.5-0.9 0.1-1.9 0.2-1 0-1.8 0-0.4 0-0.6 0-0.3 0-0.6 0 0.1 0.8 0.5 1.4 0.3 0.5 0.8 0.9 0.5 0.4 1.2 0.5 0.7 0.2 1.4 0.2 0.6 0 1.3-0.1 0.6-0.1 1.3-0.3 0.7-0.1 1.3-0.3 0.7-0.2 1.3-0.4zm-9.2-4.1q0.3 0 0.9-0.1 0.5 0 1.1-0.1 0.6 0 1.2-0.2 0.6-0.1 1.1-0.3 0.5-0.2 0.8-0.5 0.3-0.3 0.3-0.7 0-0.8-0.6-1.2-0.6-0.4-1.6-0.4-0.5 0-1 0.1-0.6 0.1-1 0.5-0.5 0.4-0.8 1.1-0.4 0.7-0.4 1.8zm13.6-6.8h6.2v15.6h-6.2zm3.1-3.2q-0.8 0-1.5-0.2-0.7-0.2-1.3-0.5-0.5-0.3-0.8-0.7-0.3-0.4-0.3-0.9 0-0.6 0.3-1.1 0.3-0.4 0.8-0.7 0.6-0.3 1.3-0.4 0.7-0.2 1.5-0.2 0.9 0 1.6 0.2 0.7 0.1 1.3 0.4 0.5 0.3 0.8 0.7 0.3 0.5 0.3 1.1 0 0.5-0.3 0.9-0.3 0.4-0.9 0.7-0.5 0.3-1.2 0.5-0.7 0.2-1.6 0.2zm11.1 18.7l-5.2-15.5h7l2.7 11.6 3-11.6h5.3l-4.9 15.5zm29.9-4.7v4.1q-1.4 0.5-3 0.8-1.5 0.3-3.2 0.3-1.9 0-3.6-0.5-1.7-0.5-2.9-1.6-1.3-1-2.1-2.6-0.7-1.6-0.7-3.8 0-1.2 0.4-2.3 0.3-1.1 1-2 0.7-0.8 1.6-1.5 0.9-0.7 1.9-1.2 1-0.4 2.1-0.7 1.1-0.2 2.2-0.2 1.6 0 2.9 0.4 1.3 0.3 2.1 1 0.9 0.6 1.3 1.4 0.4 0.8 0.4 1.7 0 1.2-0.4 2-0.3 0.7-1 1.3-0.6 0.5-1.5 0.8-0.8 0.3-1.7 0.5-1 0.2-2 0.2-0.9 0.1-1.8 0.1-0.3 0-0.6 0-0.3 0-0.5 0 0.1 0.8 0.4 1.3 0.4 0.6 0.9 1 0.5 0.3 1.1 0.5 0.7 0.1 1.5 0.1 0.6 0 1.2-0.1 0.7-0.1 1.3-0.2 0.7-0.2 1.4-0.4 0.7-0.2 1.3-0.4zm-9.3-4.1q0.4 0 0.9 0 0.6 0 1.2-0.1 0.6-0.1 1.2-0.2 0.6-0.1 1.1-0.3 0.5-0.2 0.8-0.6 0.3-0.3 0.3-0.7 0-0.7-0.6-1.2-0.6-0.4-1.6-0.4-0.5 0-1.1 0.1-0.5 0.2-1 0.6-0.5 0.4-0.8 1-0.3 0.7-0.4 1.8zm25.8 0.1c0.9 0.5 2.8 1.7 2.8 4.2 0 3.2-2.1 5-5.2 5-2.7 0-4.3-0.8-4.3-0.8v-14.6c0 0 0.8-0.8 3.9-0.8 3.3 0 4.2 2.3 4.2 3.7 0 1-0.4 2.6-1.4 3.3zm-4.6 7c0.2 0.1 1.1 0.4 2.3 0.4 1.5 0 3-0.9 3-3.1 0-2.8-2.4-3.2-4.1-3.2q-0.5 0-0.9 0.1c-0.1 0-0.2 0-0.2 0h-0.1zm1.7-12.4c-0.6 0-1.7 0.2-1.7 0.2v4.6h0.4c1.1 0 3.7-0.3 3.7-2.7 0-1.5-1.3-2.1-2.4-2.1zm7.7 0.8c0-0.5 0.4-0.9 0.9-0.9h0.4c0.5 0 0.9 0.4 0.9 0.9v0.3c0 0.6-0.4 1-0.9 1h-0.4c-0.5 0-0.9-0.4-0.9-1zm2.2 13c0 0.4-0.6 0.6-1.2 0.6-0.5 0-1-0.2-1-0.6v-10.1c0-0.2 0.7-0.6 1.3-0.6 0.4 0 0.8 0.2 0.8 0.5zm5.5-3.4c0 1.7 0.1 2.3 2 2.3 0.3 0 0.4 0.3 0.4 0.7 0 0.4-0.2 1-0.5 1h-0.2c-0.8 0-2.1 0-2.7-0.5-0.2-0.1-1.2-1-1.2-3.5v-4.6h-0.1q0 0-0.1 0h-0.2c-1.1 0-1.1 0-1.1-0.7 0-0.6 0-1.5 0.4-1.5 0 0 0.5 0 0.9 0h0.2v-2.1c0 0 0-0.5 1.1-0.5 1 0 1 0.4 1 0.5v2.1h0.6q0.4 0 0.6 0h0.9c0.8 0 0.8 0.2 0.8 1.1 0 0.6-0.1 1.1-0.4 1.1 0 0-1 0-1.8 0h-0.7zm11.3-4.5c-0.5-0.5-1.3-0.6-2.3-0.6-1.8 0-2.8 1.6-2.8 3.5 0 1.9 1 3.7 2.7 3.7 1 0 1.6-0.2 2.4-0.9h0.2c0.3 0 0.9 0.7 0.9 1.3 0 1-2.3 1.7-3.4 1.7-3 0-5-2.7-5-5.9 0-3.2 2-5.4 5-5.4 1.2 0 2.4 0.1 3.4 0.9v0.3c0 0.4-0.1 1.1-0.9 1.4zm7.8-2.6c3 0 5.4 2.3 5.4 5.4 0 3.9-2.4 5.9-5.4 5.9-2.9 0-5.3-2-5.3-5.9 0-3.1 2.4-5.4 5.3-5.4zm3.2 5.7c0-2.1-1.4-3.7-3.2-3.7-1.7 0-3.1 1.6-3.1 3.7 0 2 1.4 3.6 3.1 3.6 1.8 0 3.2-1.6 3.2-3.6zm4.1-8.1c0-0.5 0.5-1 1-1h0.3c0.6 0 1 0.5 1 1v0.3c0 0.5-0.4 1-1 1h-0.3c-0.5 0-1-0.5-1-1zm2.2 12.9c0 0.4-0.5 0.6-1.1 0.6-0.5 0-1-0.2-1-0.5l-0.1-10.2c0-0.2 0.8-0.5 1.3-0.5 0.5 0 0.9 0.1 0.9 0.5zm4.5 0.3c-0.2 0.2-0.6 0.3-1.1 0.3-0.6 0-1.1-0.2-1.1-0.4v-10c0.1-0.1 0.4-0.5 1.3-0.5 0.9 0 0.9 0.6 0.9 0.6v0.7c0.7-0.9 1.6-1.5 3.1-1.5 2.1 0 4.4 0.8 4.4 6.2v4.5c0 0.3-0.5 0.4-1 0.4-0.5 0-1.2-0.2-1.2-0.4v-5.2c0-1.9-0.6-3.3-2.5-3.3-0.8 0-2.1 0.4-2.8 1.5v7.1zm26.7-0.5c0 0.6-0.6 0.9-1.2 0.9-0.4 0-0.7-0.2-0.8-0.3-2.7-3.8-5.3-7.5-8-11.4v11.2c0 0.2-0.7 0.5-1.2 0.5-0.6 0-1-0.2-1-0.7v-14.3c0-0.5 0.5-0.8 1.1-0.8 0.4 0 0.9 0.1 1.1 0.4l7.9 11.2v-11c0-0.3 0.7-0.6 1.2-0.6 0.5 0 0.9 0.1 0.9 0.6zm7.8-14.7c0.1-0.2 0.7-0.4 1.2-0.4 0.4 0 0.8 0.1 0.9 0.4l5 14.7c0 0 0.1 0.1 0.1 0.1 0 0.3-0.2 0.6-1 0.6-1 0-1.2-0.3-1.3-0.5l-1.3-4.3h-5.6c-0.3 0.7-0.6 1.4-0.8 2.1-0.3 0.6-0.6 1.2-0.8 1.9-0.4 0.6-0.8 0.9-1.2 0.9-0.6 0-1.2-0.5-1.2-0.9zm0.8 3.5q-0.4 1.2-0.9 2.2c-0.4 1-0.7 1.9-1.2 2.9h4.1zm20.3 11.2c0 0.6-0.6 0.8-1.2 0.8-0.4 0-0.7-0.1-0.8-0.2-2.7-3.9-5.3-7.6-8-11.4v11.1c0 0.3-0.7 0.5-1.2 0.5-0.5 0-1-0.1-1-0.6v-14.4c0-0.5 0.5-0.7 1.2-0.7 0.4 0 0.8 0.1 1 0.4l7.9 11.1v-11c0-0.2 0.7-0.6 1.3-0.6 0.4 0 0.8 0.2 0.8 0.6zm8.2-15.1c3.9 0 6.2 3.7 6.2 8 0 4.4-2.7 8.1-6.2 8.1-3.5 0-6.3-3.7-6.3-8.1 0-4.3 2.8-8 6.3-8zm-4.2 7.7q0 0.3 0 0.5c0 3 2.1 5.8 4.3 5.8 2.2 0 4-3 4-6.3 0-3-1.7-5.6-4-5.6-2.1 0-3.9 2.6-4.3 5.5z"/></svg>