<svg version="1.2" xmlns="http://www.w3.org/2000/svg" viewBox="0 0 360 110" width="360" height="110"><style>.a{fill:#212124}.b{fill:#62c6ae}</style><path class="a" d="m0 0h360v110h-360z"/><path fill-rule="evenodd" class="b" d="m71.2 26.6l-0.2 4.6q-0.7-0.3-1.6-0.5-0.9-0.3-1.8-0.5-1-0.2-2-0.4-1-0.1-1.9-0.1-1.5 0-2.3 0.3-0.9 0.4-0.9 1.2 0 0.4 0.3 0.7 0.3 0.3 0.9 0.6 0.5 0.2 1.3 0.5 0.7 0.2 1.7 0.5l1.2 0.3q1.5 0.4 2.6 1 1.2 0.6 2 1.4 0.9 0.8 1.3 1.8 0.4 1 0.4 2.3 0 1.5-0.5 2.8-0.5 1.2-1.6 2.1-1.1 0.9-2.9 1.4-1.7 0.5-4.2 0.5-2.2 0-4.3-0.4-2.2-0.3-4.3-1.1v-4.9q2 1 4 1.5 2 0.4 3.9 0.4 1.6 0 2.3-0.4 0.7-0.5 0.7-1.3 0-0.5-0.3-0.8-0.2-0.4-0.8-0.7-0.6-0.3-1.6-0.6-0.9-0.3-2.3-0.7-1.3-0.3-2.5-0.9-1.2-0.6-2-1.3-0.8-0.8-1.3-1.9-0.5-1-0.5-2.4 0-1.4 0.5-2.5 0.6-1.2 1.7-2 1.1-0.8 2.8-1.2 1.7-0.5 4-0.5 0.9 0 2 0.1 1 0 2.1 0.2 1.1 0.1 2.1 0.4 1.1 0.2 2 0.5zm22 15.2v4.2q-1.5 0.5-3.3 0.8-1.8 0.3-3.7 0.3-2.1 0-4-0.5-1.9-0.5-3.3-1.6-1.5-1.1-2.3-2.7-0.9-1.6-0.9-3.9 0-1.3 0.5-2.3 0.4-1.2 1.2-2 0.7-0.9 1.7-1.6 1.1-0.7 2.2-1.2 1.2-0.5 2.4-0.7 1.2-0.3 2.4-0.3 1.9 0 3.3 0.4 1.4 0.4 2.4 1 0.9 0.7 1.4 1.5 0.5 0.8 0.5 1.8 0 1.1-0.4 1.9-0.4 0.8-1.2 1.4-0.7 0.6-1.6 0.9-1 0.3-2 0.5-1.1 0.1-2.2 0.2-1.1 0-2.1 0-0.3 0-0.6 0-0.3 0-0.7 0 0.2 0.8 0.6 1.4 0.3 0.6 0.9 1 0.6 0.3 1.3 0.5 0.8 0.1 1.7 0.1 0.6 0 1.3-0.1 0.8-0.1 1.5-0.2 0.8-0.2 1.5-0.4 0.8-0.2 1.5-0.4zm-10.4-4.2q0.4 0 1 0 0.6 0 1.3-0.1 0.7-0.1 1.4-0.2 0.6-0.2 1.2-0.4 0.5-0.2 0.9-0.5 0.3-0.3 0.3-0.7 0-0.8-0.6-1.2-0.7-0.5-1.9-0.5-0.5 0-1.1 0.2-0.6 0.1-1.2 0.5-0.5 0.4-0.9 1.1-0.3 0.7-0.4 1.8zm15.2 9v-15.9h7q-0.1 0.5-0.2 1.3-0.1 0.8-0.1 1.7 0.6-0.8 1.4-1.4 0.8-0.6 1.9-1 1-0.5 2.1-0.7 1.1-0.3 2.3-0.3 1.2 0 2.4 0.4 1.1 0.3 2 1.1 0.8 0.7 1.3 1.9 0.5 1.2 0.5 2.9v10h-7v-9q0-0.9-0.2-1.5-0.2-0.6-0.6-1-0.3-0.4-0.9-0.5-0.5-0.2-1.1-0.2-0.6 0-1.3 0.3-0.6 0.1-1.1 0.5-0.5 0.3-0.9 0.8-0.4 0.4-0.5 1v9.6zm32.2 0.5q-1.5 0-3-0.5-1.4-0.5-2.5-1.5-1.1-1.1-1.7-2.6-0.7-1.6-0.7-3.8 0-2.3 0.7-3.9 0.7-1.6 1.7-2.6 1.1-1 2.5-1.4 1.4-0.5 2.8-0.5 0.9 0 1.9 0.2 0.9 0.2 1.7 0.6 0.8 0.3 1.5 0.8 0.6 0.5 1 1v-8.9h7v22.6h-7v-2.6q-0.5 0.7-1.1 1.3-0.6 0.6-1.4 1-0.8 0.4-1.6 0.6-0.9 0.2-1.8 0.2zm-0.8-8.4q0 1.2 0.2 2 0.3 0.9 0.8 1.4 0.5 0.4 1.1 0.7 0.6 0.2 1.2 0.2 0.7 0 1.3-0.2 0.6-0.3 1-0.7 0.5-0.5 0.8-1.4 0.3-0.8 0.3-2 0-1.2-0.3-2-0.3-0.8-0.8-1.3-0.4-0.5-1-0.7-0.6-0.3-1.2-0.3-0.7 0-1.3 0.3-0.6 0.2-1.1 0.7-0.5 0.5-0.8 1.3-0.2 0.8-0.2 2zm37.3-1.6c1 0.5 3.3 1.8 3.3 4.6 0 3.5-2.5 5.5-6.3 5.5-3.1 0-5.2-0.9-5.2-0.9v-16.1c0 0 1-0.8 4.8-0.8 3.9 0 5.1 2.5 5.1 4.1 0 1-0.5 2.8-1.7 3.6zm-5.6 7.7c0.3 0.1 1.3 0.4 2.8 0.4 1.8 0 3.6-1 3.6-3.4 0-3.1-3-3.5-4.9-3.5q-0.7 0-1.1 0c-0.2 0-0.2 0.1-0.3 0.1h-0.1zm2-13.6c-0.7 0-2 0.2-2 0.2v5h0.5c1.4 0 4.4-0.3 4.4-2.9 0-1.6-1.5-2.3-2.9-2.3zm9.3 1.1c0-0.7 0.5-1.3 1.2-1.3h0.3c0.7 0 1.2 0.6 1.2 1.3 0 0.7-0.5 1.2-1.2 1.2h-0.3c-0.7 0-1.2-0.5-1.2-1.2zm2.6 14c0 0.4-0.7 0.7-1.3 0.7-0.7 0-1.3-0.2-1.3-0.6v-11.2c0-0.2 0.9-0.6 1.6-0.6 0.5 0 1 0.2 1 0.6zm6.6-3.8c0 1.9 0.2 2.5 2.5 2.5 0.2 0 0.4 0.4 0.4 0.8 0 0.5-0.2 1.1-0.6 1.1h-0.3c-0.9 0-2.5 0-3.2-0.6-0.2-0.1-1.5-1-1.5-3.7v-5.1q-0.1 0-0.2 0h-0.3c-1.2 0-1.3 0-1.3-0.8 0-0.6 0-1.6 0.5-1.6 0 0 0.6 0 1.1 0h0.2v-2.4c0 0 0-0.4 1.4-0.5 1.2 0 1.2 0.4 1.2 0.5v2.4h0.7q0.4 0 0.8 0h1c1 0 1 0.2 1 1.2 0 0.6-0.2 1.2-0.5 1.2 0 0-1.2-0.1-2.1-0.1h-0.9zm13.6-4.9c-0.6-0.5-1.5-0.6-2.8-0.6-2.1 0-3.3 1.7-3.3 3.8 0 2.1 1.2 4.1 3.3 4.1 1.2 0 1.8-0.2 2.8-1h0.2c0.4 0 1.2 0.8 1.2 1.4 0 1.2-2.8 1.9-4.2 1.9-3.6 0-6-3-6-6.5 0-3.4 2.5-5.9 6.1-5.9 1.4 0 2.8 0.1 4 1v0.4c0 0.3-0.1 1.2-1.1 1.5zm9.5-2.9c3.6 0 6.4 2.5 6.4 5.9 0 4.3-2.8 6.5-6.4 6.5-3.6 0-6.4-2.2-6.4-6.5 0-3.4 2.9-5.9 6.4-5.9zm-0.1 10.2c2.6 0 3.9-1.5 3.9-4.2 0-2.4-1.8-3.8-3.9-3.8-2 0-3.7 1.7-3.7 3.8 0 2.5 1.4 4.2 3.7 4.2zm8.9-12.7c0-0.6 0.6-1.2 1.2-1.2h0.3c0.7 0 1.3 0.6 1.3 1.2v0.1c0 0.6-0.6 1.2-1.3 1.2h-0.3c-0.6 0-1.2-0.6-1.2-1.2zm2.7 14c0 0.4-0.8 0.6-1.4 0.6-0.7 0-1.3-0.2-1.3-0.6v-11.1c0-0.2 0.9-0.6 1.6-0.6 0.5 0 1 0.1 1 0.5zm5.4 0.4c-0.2 0.2-0.7 0.3-1.3 0.3-0.7 0-1.3-0.2-1.3-0.5v-10.9c0.1-0.1 0.5-0.5 1.6-0.5 1 0 1 0.6 1 0.6v0.8c0.9-0.9 2-1.6 3.7-1.6 2.5 0 5.4 0.9 5.4 6.8l-0.1 4.8c0 0.4-0.5 0.5-1.1 0.5-0.7 0-1.5-0.2-1.5-0.5v-5.7c0-2-0.8-3.5-3-3.5-1 0-2.6 0.5-3.4 1.6v7.8zm32.3-0.5c0 0.6-0.9 0.9-1.5 0.9-0.5 0-0.9-0.1-1-0.3-3.3-4.2-6.4-8.2-9.7-12.4v12.1c0 0.3-0.7 0.6-1.4 0.6-0.7 0-1.2-0.2-1.2-0.7v-15.7c0-0.6 0.6-0.9 1.4-0.9 0.5 0 1 0.2 1.2 0.5l9.5 12.2v-12c0-0.3 0.9-0.7 1.6-0.7 0.6 0 1 0.2 1 0.7zm9.5-16.1c0.1-0.2 0.8-0.4 1.4-0.4 0.5 0 1 0.1 1.1 0.3l6 16.1c0 0 0.1 0.2 0.1 0.2 0 0.3-0.2 0.7-1.2 0.7-1.2 0-1.4-0.4-1.5-0.6l-1.6-4.7h-6.8c-0.3 0.8-0.7 1.5-1 2.2-0.3 0.8-0.6 1.4-1 2.2-0.4 0.6-0.9 0.9-1.3 0.9-0.8 0-1.5-0.5-1.5-0.9zm1 3.8q-0.6 1.3-1.1 2.5c-0.5 1-0.9 2-1.4 3.1h4.9zm24.5 12.3c0 0.6-0.8 0.8-1.5 0.8-0.5 0-0.9-0.1-1-0.2-3.2-4.2-6.4-8.3-9.6-12.5v12.2c0 0.3-0.8 0.5-1.5 0.5-0.6 0-1.2-0.1-1.2-0.6v-15.8c0-0.5 0.7-0.8 1.4-0.8 0.5 0 1 0.1 1.3 0.5l9.5 12.2v-12.1c0-0.2 0.8-0.6 1.5-0.6 0.6 0 1.1 0.1 1.1 0.6zm9.8-16.6c4.7 0 7.6 4.1 7.6 8.8 0 4.8-3.4 8.9-7.6 8.9-4.2 0-7.6-4.1-7.6-8.9 0-4.7 3.4-8.8 7.6-8.8zm-5 8.5q0 0.3 0 0.6c0 3.3 2.4 6.3 5.1 6.3 2.7 0 4.9-3.3 4.9-6.9 0-3.3-2.1-6.2-4.8-6.2-2.6 0-4.8 2.9-5.2 6.1z"/><path fill-rule="evenodd" class="b" d="m107.9 65v5.5h6.2v1.8h-6.2v7.3h-1.9v-16.4h9v1.8zm18.5 4.3v10.3h-1.8v-1.4q-0.7 0.7-1.7 1.2-0.9 0.4-2.1 0.4-1.4 0-2.6-0.7-1.2-0.7-1.9-2-0.7-1.2-0.7-2.6 0-1.5 0.7-2.7 0.7-1.2 1.9-1.9 1.2-0.8 2.6-0.8 1.2 0 2.1 0.5 1 0.4 1.7 1.2v-1.5zm-5.4 8.8q1 0 1.8-0.5 0.8-0.5 1.3-1.3 0.5-0.8 0.5-1.8 0-1-0.5-1.8-0.5-0.8-1.3-1.3-0.8-0.5-1.8-0.5-1 0-1.8 0.5-0.8 0.5-1.3 1.3-0.5 0.8-0.5 1.8 0 1 0.5 1.8 0.5 0.8 1.3 1.3 0.8 0.5 1.8 0.5zm11.8 1.7q-1.2 0-2.1-0.4-1-0.3-1.8-0.9l1-1.5q0.6 0.5 1.3 0.9 0.8 0.3 1.7 0.3 0.9 0 1.4-0.4 0.6-0.4 0.6-1.1 0-0.5-0.3-0.8-0.3-0.3-0.7-0.5-0.4-0.1-1.3-0.4-1-0.3-1.7-0.5-0.6-0.3-1.1-0.8-0.5-0.6-0.5-1.5 0-1 0.5-1.7 0.5-0.7 1.4-1 0.8-0.4 1.9-0.4 0.8 0 1.7 0.3 0.9 0.3 1.5 0.7l-1 1.4q-1.1-0.8-2.4-0.8-0.9 0-1.4 0.4-0.5 0.3-0.5 0.9 0 0.4 0.3 0.7 0.3 0.3 0.8 0.4 0.4 0.2 1.2 0.4 0.2 0.1 0.3 0.1 0.9 0.2 1.5 0.5 0.7 0.3 1.1 0.9 0.4 0.6 0.4 1.6 0 1-0.5 1.7-0.4 0.7-1.3 1.1-0.9 0.4-2 0.4zm11.1-8.8h-2.1v8.6h-1.9v-8.6h-2.1v-1.7h2.1v-3.7h1.9v3.7h2.1zm11.7 8.9q-1.4 0-2.5-0.6-1-0.6-1.6-1.7-0.6-1-0.6-2.4 0-1.1 0.4-1.9 0.4-0.8 1.1-1.5 0.7-0.6 2.1-1.7-0.9-1.1-1.3-1.9-0.4-0.8-0.4-1.7 0-1 0.5-1.8 0.4-0.7 1.2-1.2 0.9-0.4 1.9-0.4 1 0 1.8 0.4 0.8 0.4 1.3 1.2 0.5 0.8 0.5 1.7 0 0.8-0.4 1.5-0.3 0.6-0.9 1.2-0.6 0.5-1.6 1.3l3.3 4.2 2.2-2.7 1.3 1.1-2.4 3 2.8 3.7h-2.3l-1.7-2.3q-1.2 1.2-2.4 1.9-1.1 0.6-2.3 0.6zm0.4-10.6q0.9-0.7 1.3-1 0.4-0.3 0.6-0.8 0.3-0.5 0.3-1 0-0.6-0.2-1-0.3-0.4-0.8-0.6-0.4-0.2-0.9-0.2-0.8 0-1.3 0.5-0.5 0.5-0.5 1.3 0 0.5 0.2 0.9 0.1 0.4 0.4 0.7 0.2 0.3 0.7 0.9zm-0.6 8.9q0.9 0 1.8-0.6 0.9-0.6 1.9-1.6l-3.5-4.5q-1.1 0.8-1.7 1.3-0.6 0.5-0.9 1.1-0.4 0.6-0.4 1.3 0 0.8 0.4 1.4 0.3 0.7 1 1.2 0.6 0.4 1.4 0.4zm21.4 1.7q-1.7 0-3.2-0.7-1.4-0.7-2.3-1.9l1.3-1.3q1.6 2.2 4.1 2.2 0.9 0 1.7-0.3 0.7-0.4 1.2-1 0.4-0.6 0.4-1.5 0-0.8-0.5-1.5-0.5-0.6-1.2-1-0.8-0.3-2-0.9-1.4-0.5-2.3-1.1-0.8-0.5-1.4-1.3-0.6-0.9-0.6-2.2 0-1.3 0.6-2.3 0.6-1 1.7-1.5 1-0.5 2.3-0.5 1.5 0 2.7 0.6 1.2 0.6 2 1.6l-1.1 1.2q-0.9-1-1.7-1.4-0.8-0.4-1.9-0.4-0.7 0-1.4 0.3-0.6 0.3-1 0.9-0.3 0.6-0.3 1.3 0 0.9 0.4 1.4 0.4 0.6 1.1 1 0.7 0.4 1.7 0.8 0.3 0.1 0.3 0.1 1.5 0.6 2.3 1.1 0.9 0.5 1.5 1.4 0.6 0.9 0.6 2.3 0 1.5-0.6 2.5-0.7 1-1.9 1.6-1.1 0.5-2.5 0.5zm17.4-5.1h-9q0 0.9 0.5 1.7 0.5 0.8 1.4 1.3 0.8 0.5 1.8 0.5 0.9 0 1.8-0.5 0.8-0.5 1.3-1.3l1.5 0.6q-0.7 1.3-1.9 2-1.2 0.8-2.7 0.8-1.5 0-2.7-0.7-1.3-0.8-2-2-0.7-1.2-0.7-2.7 0-1.4 0.7-2.6 0.7-1.3 2-2 1.2-0.7 2.7-0.7 1.4 0 2.6 0.7 1.3 0.7 2 1.9 0.7 1.2 0.7 2.6zm-5.3-3.9q-0.8 0-1.6 0.3-0.7 0.3-1.2 0.9-0.5 0.6-0.7 1.3h6.9q-0.2-0.7-0.7-1.3-0.5-0.6-1.2-0.9-0.7-0.3-1.5-0.3zm12.1 9q-1.5 0-2.7-0.7-1.2-0.7-2-1.9-0.7-1.2-0.7-2.7 0-1.5 0.7-2.7 0.8-1.2 2-1.9 1.2-0.7 2.7-0.7 1.1 0 2 0.3 1 0.4 1.7 1.1 0.8 0.7 1.2 1.7l-1.6 0.7q-0.5-1-1.3-1.5-0.9-0.6-2-0.6-1 0-1.8 0.5-0.8 0.4-1.3 1.3-0.5 0.8-0.5 1.8 0 1 0.5 1.8 0.5 0.8 1.3 1.3 0.8 0.5 1.8 0.5 1.1 0 2-0.6 0.8-0.6 1.3-1.5l1.6 0.7q-0.4 1-1.2 1.7-0.7 0.7-1.6 1-1 0.4-2.1 0.4zm11.1 0q-1.2 0-2.1-0.5-0.9-0.4-1.4-1.3-0.5-0.9-0.5-2.1v-6.6h1.8v6.4q0 0.7 0.3 1.3 0.3 0.5 0.7 0.8 0.5 0.3 1.2 0.3 0.6 0 1.1-0.3 0.5-0.3 0.7-0.8 0.3-0.6 0.3-1.3v-6.4h1.8v6.6q0 1.2-0.5 2.1-0.5 0.9-1.4 1.3-0.8 0.5-2 0.5zm11.8-10.6q0.4 0 0.8 0.1 0.4 0.1 0.6 0.3l-0.6 1.5q-0.4-0.2-0.8-0.2-0.8 0-1.4 0.4-0.6 0.5-0.9 1.2-0.4 0.8-0.4 1.7v5.4h-1.8v-10.3h1.8v1.6q0.4-0.8 1.1-1.3 0.7-0.4 1.6-0.4zm12.6 5.5h-9q0.1 1 0.6 1.8 0.5 0.8 1.3 1.2 0.8 0.5 1.8 0.5 1 0 1.8-0.5 0.8-0.4 1.3-1.2l1.5 0.6q-0.6 1.3-1.9 2-1.2 0.7-2.7 0.7-1.5 0-2.7-0.7-1.3-0.7-2-1.9-0.7-1.3-0.7-2.7 0-1.5 0.7-2.7 0.8-1.2 2-1.9 1.2-0.7 2.7-0.7 1.4 0 2.7 0.6 1.2 0.7 1.9 1.9 0.7 1.2 0.7 2.7zm-5.3-4q-0.8 0-1.5 0.3-0.7 0.4-1.3 0.9-0.5 0.6-0.7 1.3h6.9q-0.2-0.7-0.7-1.3-0.5-0.5-1.2-0.9-0.7-0.3-1.5-0.3zm7.8-7.5h1.8v16.4h-1.8zm14 6.1l-6.2 15.5h-1.9l2-5.2-4.1-10.3h2l3.2 8.3 3-8.3z"/></svg>